<?xml version="1.0" standalone="no"?>
<!DOCTYPE svg PUBLIC "-//W3C//DTD SVG 20010904//EN"
 "http://www.w3.org/TR/2001/REC-SVG-20010904/DTD/svg10.dtd">
<svg version="1.0" xmlns="http://www.w3.org/2000/svg"
 width="700.000000pt" height="700.000000pt" viewBox="0 0 700.000000 700.000000"
 preserveAspectRatio="xMidYMid meet">
<metadata>
Created by potrace 1.14, written by Peter Selinger 2001-2017
</metadata>
<g transform="translate(0.000000,700.000000) scale(0.100000,-0.100000)"
fill="#000000" stroke="none">
<path d="M4430 6161 c0 -6 4 -13 10 -16 6 -3 7 1 4 9 -7 18 -14 21 -14 7z"/>
<path d="M4529 6157 c6 -8 7 -18 3 -22 -4 -5 -1 -5 6 -1 10 6 10 11 1 22 -6 8
-14 14 -16 14 -3 0 0 -6 6 -13z"/>
<path d="M4640 6160 c-12 -7 -10 -9 7 -7 12 0 19 5 17 9 -6 10 -6 10 -24 -2z"/>
<path d="M4492 6129 c-7 -10 -17 -19 -23 -19 -5 0 -7 5 -4 10 3 6 1 10 -5 10
-7 0 -10 -6 -7 -14 4 -10 0 -12 -14 -9 -10 3 -19 1 -19 -4 0 -5 8 -9 18 -9 9
-1 26 -4 37 -8 14 -6 16 -5 6 2 -9 7 -10 12 -2 16 6 4 11 2 11 -4 0 -7 5 -8
13 -3 17 11 57 11 50 0 -3 -5 -14 -7 -24 -4 -10 3 -24 -2 -30 -9 -7 -8 -19
-12 -27 -9 -10 4 -12 0 -8 -10 3 -9 2 -13 -4 -10 -6 3 -10 13 -10 21 0 8 -4
14 -10 14 -5 0 -10 -6 -10 -14 0 -8 -7 -17 -16 -20 -14 -5 -15 -4 -5 8 18 21
6 34 -27 31 -37 -2 -52 -12 -52 -33 1 -12 5 -10 15 8 16 29 20 19 4 -11 -5
-11 -14 -17 -18 -14 -5 3 -11 -2 -14 -9 -3 -8 -3 -17 1 -19 4 -2 2 -2 -5 -1
-6 2 -14 -2 -17 -9 -3 -9 -5 -9 -5 0 -1 6 4 15 9 18 6 3 10 11 10 17 0 7 -4 7
-13 -1 -8 -6 -17 -8 -20 -4 -4 3 -7 1 -7 -5 0 -6 -8 -10 -19 -9 -24 1 -22 29
4 43 15 8 23 8 30 0 18 -20 34 -17 30 6 -3 11 -7 23 -11 27 -4 3 -4 -2 -1 -12
5 -13 3 -17 -5 -14 -7 2 -12 13 -10 23 3 17 2 17 -12 -2 -18 -26 -61 -40 -52
-18 3 8 1 14 -4 14 -14 0 -12 -24 2 -38 6 -6 8 -15 3 -19 -4 -5 -10 -2 -12 5
-3 6 -9 12 -15 12 -7 0 -7 -5 1 -13 6 -8 7 -18 3 -22 -4 -5 -2 -5 5 -2 13 8
12 -18 -2 -30 -4 -4 -5 -2 -1 5 4 7 1 12 -9 12 -13 0 -14 -4 -5 -22 10 -20 9
-21 -2 -6 -13 15 -15 15 -26 0 -10 -15 -11 -15 -6 -1 3 10 0 20 -7 25 -7 4
-10 3 -5 -4 3 -6 2 -13 -4 -17 -6 -4 -7 -11 -4 -17 5 -7 2 -8 -6 -3 -10 6 -12
3 -7 -11 7 -18 7 -18 -7 0 -14 17 -16 17 -31 2 -9 -9 -20 -14 -25 -11 -5 3
-10 0 -12 -7 -3 -8 -7 -6 -11 5 -3 9 -2 16 3 14 5 -1 15 6 23 17 11 15 17 16
34 7 17 -8 24 -7 34 6 12 14 11 15 -7 9 -22 -7 -40 14 -35 41 1 6 -3 14 -9 18
-6 4 -7 -1 -3 -11 4 -12 3 -15 -6 -10 -6 4 -11 4 -10 -1 4 -21 -2 -34 -13 -27
-7 4 -8 3 -4 -4 5 -8 -1 -11 -16 -9 -13 1 -22 -3 -21 -10 4 -20 -23 -22 -40
-3 -11 14 -12 20 -4 24 8 3 8 5 1 5 -20 2 -39 -28 -26 -41 7 -7 12 -21 12 -32
0 -12 -3 -16 -8 -10 -8 12 -56 13 -68 2 -11 -11 -24 -10 -24 3 0 5 5 7 12 3 7
-5 8 -3 3 5 -5 9 -14 6 -33 -11 -15 -13 -20 -15 -13 -5 10 12 10 17 2 17 -7 0
-10 4 -7 8 2 4 -5 9 -17 9 -20 2 -20 1 -4 -8 9 -6 15 -15 11 -20 -4 -6 -13 -4
-25 7 -17 16 -19 16 -25 0 -6 -15 -8 -15 -21 1 -8 10 -11 12 -7 4 5 -11 3 -13
-9 -8 -10 4 -17 1 -17 -6 0 -8 -3 -8 -9 2 -6 9 -11 10 -15 2 -4 -6 -13 -8 -19
-4 -19 12 -57 11 -57 -1 0 -6 -4 -5 -9 3 -10 16 -34 5 -25 -12 3 -7 -1 -4 -9
6 -12 15 -19 16 -36 8 -16 -9 -22 -8 -30 6 -6 10 -11 12 -11 6 0 -7 -7 -13
-15 -13 -8 0 -15 6 -15 13 0 8 -3 9 -8 1 -4 -6 -15 -10 -24 -8 -10 1 -18 -3
-18 -9 0 -8 -3 -7 -9 2 -6 10 -10 10 -16 1 -6 -9 -10 -9 -16 1 -6 10 -9 10 -9
2 0 -7 -7 -10 -15 -7 -8 4 -12 11 -9 18 3 6 -1 3 -9 -7 -11 -14 -16 -15 -20
-5 -4 10 -6 10 -6 0 -1 -10 -6 -10 -22 -1 -16 8 -20 8 -14 -1 6 -9 3 -9 -13
-1 -15 8 -22 8 -25 -2 -4 -9 -6 -9 -6 0 -1 9 -8 10 -26 3 -16 -6 -26 -6 -31 1
-4 8 -9 7 -15 -2 -6 -10 -9 -11 -9 -1 0 6 -5 12 -11 12 -5 0 -7 -5 -3 -11 4
-8 1 -8 -13 -1 -11 6 -25 7 -33 2 -9 -5 -19 -5 -27 2 -9 7 -13 7 -13 -2 0 -10
-4 -10 -16 1 -13 10 -17 10 -25 -2 -7 -12 -9 -12 -9 1 0 9 -3 11 -8 5 -11 -16
-44 -15 -38 1 4 11 0 11 -19 -2 -14 -9 -25 -12 -25 -6 0 6 3 12 8 15 4 2 2 3
-4 1 -6 -1 -17 3 -24 9 -9 9 -11 9 -7 1 4 -7 0 -15 -9 -18 -8 -3 -12 -11 -8
-17 4 -8 3 -9 -5 -5 -6 4 -9 12 -6 17 4 5 1 9 -4 9 -6 0 -11 5 -11 11 0 8 4 8
13 0 10 -8 14 -7 14 4 0 8 -4 12 -9 9 -4 -3 -8 -1 -8 4 0 6 -7 13 -16 16 -14
5 -15 4 -5 -8 10 -12 9 -15 -8 -13 -12 1 -20 7 -18 16 1 7 -4 15 -11 17 -7 1
-8 0 -2 -3 6 -3 6 -11 -1 -25 -8 -15 -8 -19 0 -14 6 4 11 2 11 -3 0 -6 -7 -11
-16 -11 -10 0 -13 6 -10 18 3 9 1 24 -5 32 -9 13 -10 12 -5 -2 3 -9 -3 -25
-12 -35 -9 -10 -14 -14 -9 -9 10 14 9 28 -3 21 -5 -3 -10 -1 -10 6 0 7 -3 9
-7 5 -5 -4 -8 -12 -8 -18 0 -6 -8 -12 -18 -14 -18 -2 -18 -2 0 18 17 21 17 21
-1 14 -16 -5 -17 -4 -6 9 11 13 15 13 21 3 5 -7 9 -9 9 -5 0 4 9 3 21 -3 18
-10 19 -10 10 8 -6 11 -7 23 -3 27 4 5 1 5 -6 1 -7 -4 -10 -12 -7 -17 3 -5 -1
-6 -10 -3 -11 5 -13 10 -5 19 8 10 8 15 -1 21 -7 4 -9 3 -6 -3 9 -14 -19 -37
-34 -27 -8 5 -9 3 -4 -6 6 -10 2 -11 -17 -7 -15 4 -33 0 -49 -10 -21 -15 -22
-15 -11 -1 9 11 10 18 2 23 -5 3 -10 1 -10 -6 0 -7 -8 -6 -25 5 -14 9 -25 14
-25 10 0 -4 -7 -1 -15 6 -12 10 -14 8 -10 -9 2 -11 -1 -24 -7 -27 -7 -5 -8 -2
-3 6 6 10 4 12 -8 7 -9 -3 -19 -1 -23 5 -4 6 -3 8 4 4 6 -3 13 -2 16 3 7 11
-13 9 -32 -3 -7 -4 -18 -4 -25 2 -15 12 -47 23 -47 16 0 -2 11 -9 25 -14 14
-5 25 -15 24 -22 0 -10 -2 -10 -6 0 -4 10 -10 9 -26 -5 -16 -13 -19 -14 -9 -2
10 14 10 18 -3 23 -9 3 -13 2 -10 -4 3 -6 -4 -10 -17 -10 -16 0 -19 -3 -10 -8
8 -6 1 -9 -20 -9 l-32 0 32 15 c18 9 32 23 31 31 0 11 -2 12 -6 3 -2 -6 -10
-9 -16 -5 -7 3 -9 2 -4 -2 4 -5 -7 -15 -24 -22 -19 -8 -28 -17 -23 -24 4 -8 3
-9 -4 -5 -7 4 -12 2 -12 -5 0 -7 -7 -4 -15 7 -14 19 -14 19 -15 0 0 -11 -3
-17 -6 -13 -4 3 -4 14 0 23 5 13 9 14 20 5 22 -19 32 8 10 27 -17 16 -17 16
-3 -2 13 -18 12 -19 -3 -13 -10 3 -20 2 -23 -3 -3 -5 -12 -7 -20 -3 -10 3 -15
-1 -15 -12 0 -9 -5 -13 -10 -10 -6 4 -7 11 -4 17 4 7 2 8 -4 4 -9 -5 -9 -13
-2 -26 8 -16 8 -18 -5 -14 -8 4 -15 12 -15 19 0 8 -9 13 -19 12 -11 0 -17 -5
-15 -9 3 -4 0 -8 -5 -8 -6 0 -11 -5 -11 -12 0 -6 9 -3 20 7 11 10 20 13 20 8
0 -10 -19 -22 -31 -19 -3 0 -14 -6 -25 -14 -18 -14 -18 -14 -4 4 14 18 14 19
-6 8 -11 -6 -26 -7 -33 -3 -16 10 -61 2 -61 -11 0 -5 -5 -6 -12 -2 -18 12 -62
11 -70 0 -5 -7 -8 -7 -8 -1 0 11 -80 12 -98 1 -6 -3 -13 0 -15 6 -4 10 -6 9
-6 -1 -1 -11 -4 -11 -16 -1 -8 7 -15 8 -15 3 0 -10 -47 -9 -57 1 -4 3 -12 1
-20 -5 -10 -9 -13 -8 -13 1 0 9 -4 9 -12 3 -7 -6 -26 -8 -41 -6 -23 3 -26 1
-16 -9 14 -16 235 -19 258 -4 10 6 12 6 7 -2 -10 -16 7 -15 23 1 8 6 11 7 8 2
-3 -7 8 -11 29 -12 18 0 31 3 28 8 -3 5 2 6 10 3 9 -3 14 -10 11 -14 -3 -4 11
-4 30 0 20 5 33 4 29 -1 -3 -5 -2 -15 3 -21 4 -7 9 -22 11 -33 3 -19 2 -19
-12 0 -8 11 -12 24 -9 28 3 5 -4 3 -15 -4 -22 -14 -19 -34 4 -25 8 3 14 -1 14
-10 0 -10 -6 -14 -15 -10 -8 3 -15 1 -15 -4 0 -5 8 -10 18 -13 9 -2 -16 -3
-55 -3 -40 0 -73 4 -73 8 0 5 14 6 31 3 34 -6 53 1 43 17 -4 6 -9 5 -15 -3 -7
-11 -11 -10 -24 6 -11 14 -13 15 -9 3 4 -11 0 -16 -13 -15 -10 1 -21 7 -25 12
-5 6 -8 6 -8 -2 0 -6 -11 -10 -24 -9 -14 2 -30 -1 -38 -5 -8 -6 -1 -7 20 -5
18 2 30 1 27 -3 -11 -10 -85 -10 -85 1 0 5 5 6 12 2 7 -5 8 -3 3 6 -6 10 -11
10 -20 -3 -15 -21 -29 -22 -21 -2 3 8 1 15 -4 15 -6 0 -10 -7 -10 -15 0 -8 -9
-15 -20 -15 -11 0 -20 4 -20 9 0 5 -7 12 -16 15 -14 6 -15 4 -4 -9 11 -13 11
-16 -1 -13 -8 2 -17 8 -21 13 -5 6 -8 5 -8 -2 0 -7 -5 -13 -11 -13 -5 0 -8 4
-5 9 7 10 -20 9 -30 -2 -15 -14 -33 -7 -27 11 5 14 3 14 -11 -3 -10 -11 -15
-15 -12 -9 3 6 -1 11 -9 11 -8 0 -12 -4 -9 -9 10 -16 -25 -7 -36 10 -11 16
-11 16 -6 0 4 -14 -1 -18 -23 -18 -16 0 -31 7 -35 15 -3 8 -11 15 -18 14 -10
0 -10 -2 0 -6 6 -2 12 -9 12 -14 0 -15 -22 -10 -37 9 -10 13 -13 13 -11 2 2
-11 -8 -15 -38 -17 -34 -1 -43 2 -47 18 -6 21 -37 16 -37 -6 0 -11 -20 -13
-84 -12 -46 1 -82 5 -80 9 2 3 -2 8 -8 11 -10 3 -10 8 1 18 12 12 13 12 6 0
-6 -10 -4 -12 5 -6 9 6 11 4 5 -6 -5 -8 -5 -11 -1 -7 5 4 19 3 32 -2 13 -5 23
-6 23 -2 -3 19 2 33 10 28 11 -7 8 21 -4 31 -4 4 -5 2 -1 -5 4 -7 1 -15 -8
-18 -9 -3 -13 -10 -10 -15 3 -5 -1 -9 -8 -9 -8 0 -14 9 -15 20 -1 13 2 18 9
14 7 -5 8 -2 3 6 -6 10 -11 9 -21 -4 -7 -10 -15 -13 -18 -7 -4 5 -18 8 -32 5
-17 -3 -23 -1 -19 7 6 8 2 8 -13 0 -25 -13 -35 -14 -27 -2 3 5 -8 3 -25 -5
-16 -9 -30 -21 -30 -27 0 -7 -9 2 -20 18 -11 17 -20 23 -20 15 0 -13 -2 -13
-9 0 -6 8 -7 18 -5 22 9 15 -3 8 -17 -9 -10 -11 -10 -14 -2 -9 8 4 13 2 13 -4
0 -7 -6 -10 -12 -7 -7 2 -21 0 -32 -5 -12 -7 -16 -7 -12 0 4 7 -7 9 -29 8 -20
-2 -38 1 -42 7 -3 6 -1 7 5 3 8 -5 10 -1 5 9 -3 9 -9 12 -12 7 -3 -5 -16 -12
-28 -16 -13 -4 -20 -13 -17 -21 3 -7 1 -16 -5 -20 -7 -3 -8 0 -5 9 3 8 -3 19
-14 25 -12 6 -19 19 -17 28 2 10 4 20 4 23 1 3 5 -1 10 -8 7 -11 9 -11 14 2 5
12 -5 15 -63 13 -38 -1 -66 -5 -63 -10 2 -4 13 -5 24 -2 11 4 19 2 19 -5 0 -6
4 -9 9 -6 5 4 16 3 25 0 13 -5 14 -9 5 -20 -9 -12 -15 -12 -28 -2 -14 11 -14
11 -3 -3 10 -13 10 -19 -2 -28 -8 -6 -18 -11 -22 -10 -23 6 -64 -25 -64 -48 0
-12 4 -23 9 -23 5 0 14 -12 20 -27 11 -28 19 -42 55 -97 14 -20 15 -27 5 -21
-7 4 -5 -3 6 -16 12 -13 27 -37 35 -54 8 -16 22 -36 30 -43 13 -12 13 -13 0
-6 -11 6 -10 2 2 -13 10 -11 18 -25 18 -31 0 -7 5 -12 10 -12 6 0 10 -7 10
-15 0 -8 5 -15 12 -15 6 0 8 -3 5 -6 -4 -4 2 -19 13 -34 11 -15 17 -30 13 -34
-3 -3 -1 -6 5 -6 6 0 16 -16 23 -35 7 -19 16 -35 20 -35 4 0 12 -15 19 -32 7
-18 25 -48 38 -67 14 -19 19 -31 11 -27 -9 5 -8 3 2 -6 9 -7 14 -19 11 -26 -2
-7 2 -11 9 -10 8 2 15 -8 17 -22 5 -30 36 -72 47 -62 5 4 5 2 2 -4 -7 -12 17
-69 33 -79 5 -3 6 -13 3 -23 -3 -9 -2 -13 2 -9 11 10 47 -62 38 -77 -3 -6 -3
-8 2 -4 9 9 35 -30 72 -105 18 -36 28 -47 40 -43 13 5 14 4 3 -9 -9 -10 -9
-19 -2 -27 6 -7 26 -42 45 -78 19 -36 43 -81 53 -100 11 -19 24 -38 30 -42 10
-7 26 -46 28 -71 1 -4 7 -11 14 -16 11 -7 11 -9 -1 -14 -9 -3 -14 -14 -12 -24
2 -10 4 -26 4 -35 1 -10 6 -18 12 -18 7 0 8 7 4 18 -13 34 -13 49 1 49 10 0
11 -4 5 -10 -7 -7 -5 -19 3 -36 8 -14 12 -38 11 -53 -3 -21 0 -26 13 -21 14 4
15 3 2 -6 -12 -8 -12 -11 3 -17 9 -3 15 -10 12 -14 -3 -4 2 -11 11 -14 8 -3
13 -10 10 -15 -3 -5 1 -12 9 -15 20 -7 39 -56 27 -68 -5 -5 -16 2 -26 16 -19
29 -11 35 11 9 12 -16 12 -14 2 10 -7 15 -14 25 -17 23 -6 -6 -23 12 -41 44
-50 86 -78 147 -73 160 2 8 1 12 -3 8 -4 -4 -13 -1 -20 6 -19 18 -60 99 -56
111 1 5 -1 7 -5 3 -10 -10 -46 61 -38 74 4 6 3 8 -3 5 -5 -4 -16 6 -24 21 -7
15 -24 44 -37 64 -14 21 -21 42 -16 49 4 7 3 9 -4 5 -6 -4 -21 13 -35 41 -30
59 -58 109 -92 162 -14 23 -22 41 -19 41 4 0 1 8 -7 18 -8 9 -21 31 -29 47 -8
17 -18 32 -21 35 -6 5 -32 51 -35 60 -4 18 -21 48 -36 64 -10 11 -18 23 -18
28 0 4 -21 42 -46 85 -25 43 -67 116 -92 163 -25 47 -50 88 -56 92 -7 5 -7 8
-1 8 7 0 7 3 0 8 -6 4 -19 25 -30 47 -11 22 -27 51 -36 65 -9 14 -33 57 -54
95 -21 39 -57 100 -80 136 -27 42 -40 70 -34 76 6 6 4 10 -5 10 -8 0 -13 -7
-11 -16 4 -17 90 -188 104 -206 9 -11 43 -72 99 -175 19 -36 38 -69 42 -75 9
-12 78 -139 98 -180 9 -16 23 -41 32 -55 10 -14 32 -52 50 -85 41 -77 56 -104
176 -318 54 -98 108 -195 119 -215 20 -36 52 -93 110 -197 105 -190 278 -498
330 -590 34 -60 99 -177 145 -260 45 -82 108 -195 139 -250 31 -55 58 -104 60
-110 2 -5 36 -66 75 -135 40 -69 75 -133 79 -143 4 -11 12 -15 18 -11 8 4 9 3
5 -5 -4 -6 -3 -17 2 -24 5 -7 21 -32 34 -57 39 -70 59 -104 245 -430 234 -408
281 -487 317 -540 17 -25 31 -48 31 -52 0 -3 3 -9 7 -13 26 -26 -24 76 -115
235 -11 19 -31 56 -45 82 -13 27 -28 50 -33 54 -5 3 -7 10 -4 15 4 5 2 9 -4 9
-5 0 -13 10 -17 23 -3 12 -15 34 -26 49 -11 16 -16 34 -12 40 4 7 3 10 -1 5
-10 -9 -34 25 -76 108 -47 91 -64 122 -94 166 -14 23 -24 47 -21 55 3 8 2 13
-3 10 -8 -5 -143 223 -190 319 -9 17 -18 32 -21 35 -16 15 -40 72 -34 82 4 7
3 8 -4 4 -12 -7 -38 32 -33 53 1 7 -2 10 -7 7 -6 -3 -15 8 -21 26 -6 17 -17
39 -25 47 -20 24 -116 211 -108 211 4 0 2 4 -4 8 -15 9 -147 243 -147 260 0 6
-4 12 -9 12 -8 0 -79 134 -77 146 0 4 -4 10 -9 13 -18 12 -73 122 -66 133 4 6
3 8 -3 5 -12 -8 -26 20 -17 34 8 13 21 11 44 -8 19 -16 19 -18 2 -37 -15 -18
-15 -19 0 -8 14 11 20 10 37 -9 11 -12 18 -26 15 -31 -3 -4 0 -8 5 -8 6 0 11
-7 11 -15 0 -8 3 -15 8 -15 4 0 12 -10 18 -23 6 -12 25 -48 43 -80 18 -31 29
-62 25 -69 -4 -6 -3 -8 4 -5 10 7 36 -32 92 -137 31 -59 88 -162 155 -278 14
-26 23 -53 19 -59 -4 -7 -3 -9 3 -6 9 6 236 -377 236 -400 0 -7 3 -10 7 -8 3
2 20 -22 36 -53 16 -31 32 -59 35 -62 3 -3 22 -34 41 -70 20 -36 59 -105 88
-155 56 -95 77 -132 130 -230 18 -33 48 -85 66 -116 19 -31 34 -62 34 -68 0
-6 3 -11 8 -11 4 0 12 -10 18 -23 15 -31 62 -116 84 -152 10 -16 35 -62 56
-102 21 -39 42 -69 48 -66 5 3 6 1 2 -5 -4 -6 4 -28 16 -49 13 -21 30 -50 37
-65 8 -15 19 -25 24 -21 6 3 7 2 4 -4 -3 -5 0 -20 7 -34 85 -160 121 -220 127
-214 3 2 5 -4 6 -14 2 -26 69 -132 78 -123 5 4 5 1 1 -5 -4 -7 5 -34 20 -60
15 -27 36 -65 48 -86 11 -21 28 -46 37 -56 10 -10 16 -21 13 -24 -4 -4 33 -75
46 -87 3 -3 23 -41 45 -85 50 -100 154 -283 164 -290 4 -2 8 8 9 24 1 35 61
133 76 124 6 -4 5 0 -2 9 -9 11 -10 18 -2 23 6 3 7 12 4 18 -4 7 -3 9 1 4 8
-7 33 33 76 121 12 25 25 40 31 36 7 -4 8 -2 4 5 -6 9 52 118 123 231 8 14 16
30 16 35 1 6 7 9 14 7 7 -1 10 2 7 7 -8 12 33 83 44 76 5 -3 12 0 16 6 4 8 3
9 -4 5 -17 -10 -15 11 4 39 9 14 21 22 27 18 6 -3 7 -1 3 5 -4 7 -2 20 4 29
11 17 11 17 6 0 -3 -11 -2 -15 4 -12 6 3 10 13 10 21 0 8 7 17 15 20 8 4 15
13 15 22 0 13 -4 12 -22 -4 l-23 -19 18 22 c19 22 53 21 40 -1 -4 -8 -3 -8 6
0 7 6 13 21 14 33 1 21 2 21 16 4 12 -16 13 -16 8 -1 -4 11 -1 18 6 18 8 0 7
4 -3 11 -12 8 -10 9 10 7 16 -2 24 2 23 10 -4 16 14 16 21 0 3 -7 4 -4 3 7 -1
11 4 20 13 20 8 1 14 6 13 13 -2 7 2 12 7 12 6 0 10 7 10 15 0 8 3 14 8 14 20
-3 22 3 8 23 -19 27 -21 49 -3 23 11 -14 16 -15 22 -5 5 9 4 11 -3 6 -7 -4
-12 -2 -12 3 0 6 7 11 16 11 8 0 13 4 9 10 -3 5 -13 7 -23 4 -13 -5 -14 -4 -3
4 7 5 11 15 7 21 -5 7 -1 8 10 4 14 -5 15 -3 4 18 -12 21 -12 23 2 11 13 -10
18 -10 24 -1 4 8 3 9 -4 5 -16 -9 -15 7 0 22 7 7 8 12 2 12 -6 0 -16 -6 -23
-13 -10 -10 -11 -9 -6 6 7 16 18 21 38 18 5 -1 6 3 2 9 -3 6 -10 8 -15 5 -5
-3 -7 3 -5 14 3 15 -1 19 -13 15 -15 -5 -14 -4 1 6 9 6 15 15 12 21 -4 5 -2 9
4 9 5 0 15 16 21 35 6 19 15 35 19 35 4 0 15 18 25 40 10 22 22 40 27 40 6 0
8 4 4 9 -3 5 0 15 7 23 7 7 14 20 16 28 2 8 8 17 13 18 5 2 9 8 9 12 0 18 114
212 127 217 7 3 10 9 7 14 -3 5 0 8 7 7 7 -2 26 22 44 52 105 181 232 403 260
455 18 33 74 134 125 225 51 91 107 190 123 220 36 65 183 328 197 350 47 78
152 260 184 320 21 41 42 77 45 80 3 3 23 37 43 75 20 39 42 69 48 67 6 -1 9
2 6 7 -8 13 246 455 263 459 9 2 11 -3 7 -15 -6 -15 -5 -16 6 -5 11 11 10 16
-5 27 -10 7 -14 16 -8 19 5 3 11 0 14 -6 2 -7 8 -10 12 -6 4 4 2 15 -6 25 -12
14 -12 16 1 8 8 -5 24 -10 37 -11 18 -2 20 0 10 10 -6 8 -18 11 -24 9 -7 -3
-13 0 -13 6 0 6 6 10 13 9 6 -2 11 4 9 12 -2 8 0 11 5 7 4 -5 8 -14 8 -20 0
-5 5 -12 11 -14 7 -2 10 6 9 19 -1 13 6 31 17 40 17 17 18 17 15 -4 -2 -12 -9
-24 -15 -26 -7 -2 -10 -7 -7 -12 9 -15 -18 -60 -36 -60 -10 0 -20 -4 -23 -9
-4 -5 4 -7 16 -3 21 5 22 4 8 -12 -16 -20 -26 -37 -66 -115 -15 -30 -53 -98
-84 -150 -52 -88 -81 -139 -147 -258 -12 -24 -34 -63 -48 -88 -13 -25 -21 -45
-17 -45 4 0 2 -4 -5 -8 -6 -4 -13 -14 -15 -22 -2 -8 -11 -23 -21 -32 -11 -9
-16 -21 -13 -27 4 -5 -2 -18 -12 -28 -19 -18 -36 -52 -34 -65 1 -5 -3 -8 -10
-8 -6 0 -9 -3 -5 -6 3 -3 -3 -15 -13 -27 -11 -11 -17 -23 -15 -27 3 -5 -2 -11
-11 -14 -9 -4 -14 -9 -10 -13 3 -3 -2 -15 -11 -26 -14 -15 -14 -19 -3 -15 8 2
24 22 35 45 12 22 29 50 38 63 9 13 14 27 11 32 -3 4 -1 8 4 8 4 0 18 18 31
40 12 22 20 40 16 40 -3 0 3 10 15 22 11 12 20 26 20 30 0 5 16 34 35 64 19
30 35 57 35 60 0 3 8 18 19 32 10 15 29 47 43 72 14 25 41 72 60 105 20 33 69
119 110 190 158 276 190 330 202 345 7 8 18 27 25 42 8 15 19 25 24 21 6 -3 7
-1 3 5 -4 7 9 39 28 72 20 33 34 60 31 60 -2 0 12 28 31 62 19 34 33 68 32 77
-3 13 -32 -28 -95 -134 -6 -11 -16 -19 -23 -17 -6 1 -10 -5 -8 -14 2 -9 -8
-23 -22 -31 l-25 -15 25 22 25 22 -25 -6 c-23 -5 -24 -4 -7 9 21 15 29 45 16
60 -4 6 3 32 16 59 13 27 21 54 18 59 -3 6 -2 7 3 4 5 -3 23 22 39 56 16 34
37 73 46 87 36 54 68 123 62 134 -3 6 -2 8 2 3 8 -7 65 73 65 92 0 5 7 14 15
21 8 7 13 16 10 20 -2 4 4 15 15 25 11 10 17 21 15 26 -3 4 5 15 17 23 12 9
19 16 14 16 -5 0 3 11 18 25 14 13 27 28 27 32 1 14 9 17 9 3 0 -7 3 -10 6 -7
4 4 1 14 -7 24 -9 11 -10 14 -1 9 6 -4 12 -2 12 3 0 6 5 11 11 11 6 0 9 -6 6
-13 -3 -8 0 -14 7 -14 7 0 13 6 13 14 0 7 -4 13 -8 13 -5 0 -6 8 -3 18 5 14 4
14 -5 2 -5 -8 -12 -12 -15 -10 -2 3 4 16 15 29 10 13 19 17 19 10 0 -10 3 -10
12 -1 10 10 10 15 -1 21 -7 5 -11 13 -7 19 3 6 -2 15 -11 21 -10 6 -14 11 -9
11 5 0 3 6 -4 14 -11 14 -44 11 -36 -3 3 -4 -14 -6 -37 -6 -22 0 -42 6 -45 13
-2 8 -11 4 -24 -10 -11 -13 -16 -17 -12 -9 5 10 3 13 -8 9 -8 -4 -21 -2 -29 2
-8 6 -16 4 -21 -3 -6 -9 -8 -9 -8 1 0 7 -4 10 -10 7 -5 -3 -10 -1 -10 6 0 8
-3 9 -13 0 -8 -6 -18 -7 -22 -3 -5 4 -5 2 -1 -5 4 -7 13 -10 20 -7 8 3 17 1
20 -5 4 -6 -6 -8 -24 -6 -18 2 -28 0 -25 -5 4 -6 -1 -7 -11 -3 -13 5 -15 3 -9
-8 5 -8 -1 -6 -12 4 -20 17 -22 17 -31 1 -5 -9 -20 -18 -33 -18 -13 -1 -29 -5
-36 -9 -6 -4 -14 -3 -18 3 -7 11 -6 12 34 14 16 0 33 5 38 10 4 5 3 6 -4 2 -6
-3 -15 -2 -18 4 -5 8 -11 7 -21 -1 -8 -6 -14 -8 -14 -3 -1 5 -10 -2 -20 -15
-11 -13 -20 -18 -20 -12 0 13 -22 10 -32 -4 -5 -6 -8 -6 -8 2 0 7 -14 10 -40
8 -22 -2 -38 0 -35 5 2 4 16 6 30 5 14 -2 27 0 29 3 2 4 -34 7 -80 7 -46 0
-84 -3 -84 -7 0 -5 5 -8 12 -8 6 0 8 -3 5 -7 -4 -3 -16 2 -27 12 -14 13 -19
14 -15 4 4 -11 -5 -14 -42 -16 -27 0 -57 4 -68 10 -17 9 -18 8 -8 -4 10 -12 6
-14 -25 -14 -20 1 -45 -3 -55 -7 -12 -6 -16 -5 -15 3 2 7 -6 14 -17 16 -17 4
-18 2 -5 -7 13 -10 13 -11 -1 -7 -9 3 -22 1 -28 -4 -8 -6 -8 -5 -1 3 6 7 10
19 10 27 0 11 -3 10 -14 -4 -13 -18 -13 -18 -24 1 -6 10 -12 14 -12 9 0 -6 -9
-11 -19 -11 -11 0 -17 5 -13 11 3 5 -2 4 -11 -4 -9 -7 -17 -9 -17 -4 0 5 -9 9
-19 9 -11 0 -17 -4 -15 -8 3 -4 -9 -2 -26 4 -17 5 -34 8 -37 5 -3 -4 -14 -2
-24 4 -15 8 -17 6 -12 -8 6 -16 5 -16 -10 -4 -9 7 -17 11 -17 7 0 -3 -11 -1
-25 4 -14 5 -25 6 -25 1 0 -17 -46 1 -47 19 -1 12 4 17 15 15 9 -2 19 -4 22
-4 3 -1 -2 -6 -10 -11 -9 -6 -10 -10 -3 -10 14 0 28 19 19 27 -3 3 -18 7 -35
8 -23 2 -28 -1 -24 -14 4 -12 3 -13 -5 -3 -7 11 -10 11 -15 -1 -4 -11 0 -15
13 -12 12 2 17 -1 14 -10 -6 -14 -44 -9 -44 7 0 5 -5 6 -10 3 -6 -4 -8 -12 -5
-18 3 -7 -2 -2 -11 11 -9 12 -24 22 -33 22 -13 -1 -13 -3 3 -15 11 -8 15 -15
9 -15 -12 0 -26 17 -29 36 -2 13 33 7 42 -7 3 -5 10 -9 16 -9 6 0 6 6 -2 15
-7 9 -10 18 -6 22 3 3 6 1 6 -6 0 -7 5 -9 10 -6 6 4 8 10 6 14 -3 4 7 7 22 7
17 -1 26 4 24 12 -1 8 2 11 8 7 6 -3 8 -11 5 -16 -8 -13 9 -11 22 2 8 8 14 5
23 -11 6 -12 14 -19 17 -17 2 3 -1 16 -8 29 -11 21 -11 22 4 9 10 -7 17 -10
17 -6 0 4 6 2 13 -4 8 -6 17 -8 21 -4 11 11 51 11 59 -1 6 -8 10 -7 14 2 2 6
9 12 14 12 6 0 8 -4 5 -8 -3 -5 1 -9 9 -9 8 0 15 5 15 10 0 5 6 5 13 -2 10 -8
17 -7 25 1 7 7 12 9 12 5 0 -4 9 -3 20 3 17 9 19 8 13 -7 -6 -16 -5 -17 12 -3
21 17 24 17 36 -2 5 -7 9 -8 9 -2 0 7 17 10 45 9 30 -2 43 1 38 8 -4 6 -1 7 7
2 17 -11 460 -13 467 -3 8 15 -25 19 -170 22 -91 1 -144 -1 -140 -7 4 -6 1 -7
-7 -2 -8 5 -44 9 -82 10 -37 1 -71 5 -75 8 -3 4 -12 2 -19 -4 -7 -6 -19 -7
-26 -3 -19 12 -71 12 -85 1 -9 -6 -13 -5 -13 4 0 11 -2 11 -10 -1 -5 -8 -10
-10 -10 -4 0 6 -7 11 -15 11 -10 0 -14 -6 -10 -16 4 -14 4 -14 -7 -1 -14 17
-32 20 -44 8 -4 -4 -14 -2 -22 5 -12 9 -16 9 -19 0 -3 -7 -9 -13 -14 -13 -6 0
-7 4 -4 10 4 6 -6 8 -25 6 -21 -2 -30 0 -27 9 3 6 -1 12 -8 12 -7 0 -11 -6 -9
-12 3 -8 -5 -10 -27 -7 -25 4 -30 2 -24 -9 7 -11 6 -12 -6 -3 -20 16 -58 24
-64 13 -3 -4 -16 -5 -28 0 -12 4 -29 6 -37 3 -8 -3 -12 -1 -8 3 11 12 58 14
58 3 0 -6 6 -6 15 2 8 7 13 16 10 20 -3 5 1 10 7 13 7 2 9 8 5 13 -9 10 -28
-16 -21 -28 6 -10 -10 -11 -19 -1 -4 3 -2 12 5 20 8 11 7 12 -6 7 -9 -3 -16
-10 -16 -15 0 -5 -5 -9 -10 -9 -7 0 -7 6 0 19 13 25 13 31 -1 31 -5 0 -7 -4
-4 -10 7 -11 -8 -14 -19 -3 -14 14 -46 13 -46 -2 0 -8 5 -15 11 -15 5 0 7 6 3
13 -6 9 -5 9 7 0 8 -6 18 -11 22 -11 15 0 21 -12 6 -13 -8 0 -25 -1 -39 -3
-22 -1 -26 3 -25 24 0 14 6 30 12 35 9 7 10 14 2 25 -10 13 -10 13 -6 -1 3 -8
-3 -21 -14 -27 -22 -14 -25 -3 -6 18 10 12 9 12 -5 1 -15 -11 -19 -11 -24 3
-3 9 -10 16 -16 16 -5 0 -6 -4 -3 -10 3 -5 2 -10 -4 -10 -18 0 -22 19 -6 28
15 8 14 10 -1 23 -13 10 -15 10 -10 1 4 -7 2 -20 -5 -28 -10 -12 -14 -13 -28
-1 -23 20 -65 41 -57 29 3 -6 0 -13 -6 -16 -7 -3 -2 -3 11 0 16 4 21 2 17 -5
-5 -7 -1 -9 11 -5 10 3 14 2 8 -3 -5 -4 -10 -14 -10 -20 0 -7 -4 -13 -10 -13
-5 0 -10 6 -10 13 0 14 -46 37 -59 29 -5 -3 -1 -9 10 -13 18 -7 18 -8 -2 -8
-17 -1 -22 4 -20 23 1 19 4 22 17 15 17 -9 29 -3 29 15 0 6 -5 4 -10 -4 -7
-11 -10 -11 -10 -2 0 7 -4 10 -10 7 -14 -9 -12 9 3 24 10 10 8 11 -7 5 -15 -6
-17 -4 -11 6 5 8 4 11 -3 7 -5 -4 -8 -16 -5 -27 4 -15 2 -19 -10 -14 -9 3 -18
11 -20 17 -2 7 -2 1 0 -12 4 -20 2 -22 -10 -13 -8 7 -17 9 -20 5 -4 -3 -7 -1
-7 6 0 7 -4 10 -9 7 -4 -3 -17 1 -27 9 -17 12 -21 11 -42 -13 -15 -17 -22 -20
-18 -10 7 22 -13 35 -25 17 -8 -11 -13 -10 -27 7 -18 21 -19 21 -30 3z m18 -9
c0 -5 -5 -10 -11 -10 -5 0 -7 5 -4 10 3 6 8 10 11 10 2 0 4 -4 4 -10z m159
-40 c0 -10 -2 -11 -6 -2 -2 6 -10 9 -16 5 -6 -3 -24 -7 -40 -8 -24 -2 -27 0
-15 9 15 11 18 17 18 36 0 5 13 1 30 -8 16 -9 30 -24 29 -32z m46 10 c9 15 25
2 19 -15 -7 -17 -35 -28 -31 -12 1 7 -3 11 -9 10 -6 -1 -11 5 -11 12 0 11 4
12 13 4 8 -7 14 -7 19 1z m-316 -17 c-7 -10 -14 -19 -15 -21 -1 -2 -4 4 -8 13
-3 9 -2 13 4 10 6 -3 10 -1 10 4 0 6 5 11 11 11 8 0 7 -6 -2 -17z m171 -3 c0
-5 -4 -10 -10 -10 -5 0 -10 5 -10 10 0 6 5 10 10 10 6 0 10 -4 10 -10z m310
-25 c0 4 7 2 15 -5 8 -6 19 -9 24 -6 6 4 15 -3 21 -14 6 -11 15 -18 20 -15 4
3 7 -1 6 -7 -3 -20 -16 -38 -29 -38 -6 0 -3 6 7 13 16 12 16 14 2 26 -9 7 -26
14 -40 15 -16 1 -22 6 -18 15 4 10 -6 7 -29 -8 -24 -16 -28 -17 -12 -3 17 15
19 22 10 33 -10 11 -9 11 6 0 9 -7 17 -10 17 -6z m-813 -69 c-12 -12 -26 -22
-32 -22 -5 1 -9 -5 -7 -12 1 -8 -3 -12 -10 -9 -7 2 -23 0 -36 -4 -13 -5 -21
-5 -18 0 3 5 -1 14 -9 21 -8 7 -15 18 -15 24 1 6 9 1 20 -12 16 -19 23 -21 40
-12 11 6 18 15 15 20 -3 4 4 6 14 3 13 -3 24 2 32 15 7 12 16 19 20 16 4 -2
-2 -15 -14 -28z m185 27 c-6 -2 -9 -10 -6 -15 4 -7 2 -8 -4 -4 -18 11 -14 26
6 25 10 0 12 -3 4 -6z m688 -19 c0 -2 -9 0 -19 6 -13 7 -22 7 -26 0 -3 -5 -11
-10 -18 -10 -6 0 -2 6 8 14 18 13 55 6 55 -10z m-2398 -2 c9 -9 9 -12 0 -12
-7 0 -12 6 -12 13 0 9 -2 9 -9 -1 -7 -11 -9 -11 -14 1 -7 18 17 17 35 -1z
m-89 -6 c4 -10 1 -13 -8 -9 -8 3 -12 9 -9 14 7 12 11 11 17 -5z m194 -23 c0
-9 -4 -10 -14 -2 -10 9 -18 8 -30 -2 -16 -13 -17 -12 -5 3 15 19 49 20 49 1z
m-167 -9 c0 -8 -19 -13 -24 -6 -3 5 1 9 9 9 8 0 15 -2 15 -3z m330 -15 c0 -5
-4 -9 -8 -9 -5 0 -9 7 -9 15 0 8 4 12 9 9 4 -3 8 -9 8 -15z m2203 14 c-7 -2
-19 -2 -25 0 -7 3 -2 5 12 5 14 0 19 -2 13 -5z m-2967 -35 c19 -23 19 -23 -2
-5 -11 9 -24 14 -29 10 -4 -5 -5 -2 -1 5 9 16 10 16 32 -10z m1369 -8 c-4 -6
22 -10 70 -10 58 0 74 -3 69 -12 -6 -10 -4 -10 7 -2 27 21 48 23 64 8 8 -9 15
-11 15 -6 0 5 15 12 34 14 19 2 32 0 30 -4 -3 -4 0 -8 5 -8 6 0 11 5 11 12 0
6 3 8 7 5 3 -4 -2 -17 -13 -28 -19 -22 -19 -22 4 -8 12 8 22 16 22 19 0 9 143
6 158 -3 7 -5 12 -4 12 3 0 10 40 7 59 -4 5 -4 12 0 14 6 4 9 6 10 6 1 1 -6
-3 -15 -9 -18 -5 -3 -10 -13 -10 -22 0 -11 5 -9 21 8 11 13 18 18 14 12 -3 -7
-2 -13 4 -13 5 0 9 -8 8 -17 -1 -15 -12 -18 -63 -19 -56 -2 -62 0 -61 17 1 11
6 17 12 15 5 -2 9 -8 8 -14 -2 -6 4 -9 13 -5 15 6 14 27 -2 29 -5 0 -17 4 -27
9 -10 4 -21 5 -24 2 -3 -4 -13 -2 -23 3 -13 7 -24 4 -40 -10 -13 -11 -19 -21
-14 -21 58 -7 68 -7 55 0 -8 5 -21 6 -30 3 -14 -5 -14 -4 -2 11 10 12 17 14
26 7 7 -6 19 -8 27 -5 9 4 15 0 15 -10 0 -8 -4 -15 -9 -15 -5 0 -7 -3 -4 -8 2
-4 -45 -7 -105 -7 -60 0 -109 3 -109 7 0 4 -7 5 -15 2 -8 -4 -12 -11 -8 -18 5
-8 3 -8 -8 0 -8 7 -29 10 -46 8 -18 -2 -33 1 -33 6 0 6 -9 6 -22 1 -13 -4 -41
-6 -63 -4 -52 4 -55 4 -87 -1 -16 -2 -30 0 -34 5 -3 5 -10 6 -16 3 -18 -12
-118 -13 -118 -2 0 6 -6 6 -15 -2 -9 -7 -15 -8 -15 -2 0 5 -9 8 -20 5 -11 -3
-20 -10 -20 -15 0 -5 5 -6 12 -2 7 5 8 3 3 -6 -6 -10 -11 -9 -21 5 -7 10 -10
23 -7 29 5 8 2 7 -8 0 -8 -7 -40 -11 -71 -10 -31 1 -55 -1 -52 -5 5 -9 -23 -5
-32 4 -4 4 -13 2 -19 -3 -9 -8 -14 -6 -18 4 -4 10 -1 13 9 9 7 -3 14 0 14 6 0
6 -5 11 -12 11 -6 0 -8 3 -4 7 4 5 14 -1 22 -11 10 -15 14 -16 14 -5 0 26 -21
39 -44 28 -19 -9 -19 -9 -4 4 10 8 15 17 11 20 -3 4 -4 7 0 7 3 0 16 -10 27
-22 15 -16 19 -18 15 -6 -6 14 0 17 39 15 25 -1 48 3 51 8 3 6 4 -2 2 -16 -2
-15 1 -26 8 -26 7 0 10 10 7 25 -4 22 -3 23 17 13 16 -9 21 -9 21 1 0 9 3 9 9
-2 6 -8 7 -19 4 -25 -4 -5 -2 -6 3 -2 5 5 9 14 9 20 0 11 168 12 186 2 4 -3
11 -1 14 5 5 8 11 7 21 -1 11 -9 14 -8 14 2 0 8 6 6 16 -7 8 -10 13 -13 9 -6
-6 12 1 32 11 32 3 0 2 -4 -1 -10z m-1264 -17 c13 -16 12 -17 -3 -4 -17 13
-22 21 -14 21 2 0 10 -8 17 -17z m759 13 c0 -2 -8 -10 -17 -17 -16 -13 -17
-12 -4 4 13 16 21 21 21 13z m-840 -44 c0 -1 -9 2 -20 8 -11 6 -20 15 -20 20
0 6 9 2 20 -7 11 -10 20 -19 20 -21z m1975 9 c-6 -5 -25 10 -25 20 0 5 6 4 14
-3 8 -7 12 -15 11 -17z m30 19 c3 -5 1 -10 -4 -10 -6 0 -11 5 -11 10 0 6 2 10
4 10 3 0 8 -4 11 -10z m972 -12 c-3 -8 -6 -5 -6 6 -1 11 2 17 5 13 3 -3 4 -12
1 -19z m-4392 -21 c6 -5 3 -6 -8 -3 -13 4 -17 1 -15 -12 2 -11 -3 -16 -14 -14
-13 2 -16 -2 -12 -15 4 -14 4 -15 -4 -4 -7 9 -11 10 -17 2 -5 -9 -10 -9 -21 0
-11 9 -14 9 -14 -1 0 -8 -3 -10 -6 -7 -4 4 -1 13 6 22 10 12 16 13 26 4 10 -8
14 -8 14 0 0 6 8 11 17 11 9 0 14 3 10 6 -3 3 0 12 6 19 7 7 14 10 17 7 3 -4
10 -11 15 -15z m3450 13 c-3 -5 -12 -10 -18 -10 -7 0 -6 4 3 10 19 12 23 12
15 0z m-1218 -15 c0 -8 -4 -15 -9 -15 -10 0 -11 14 -1 23 9 10 10 9 10 -8z
m-1859 -9 c4 5 14 10 22 12 12 3 12 1 3 -9 -7 -7 -25 -13 -40 -14 -15 -1 -34
-4 -42 -6 -7 -2 -16 2 -18 10 -4 9 0 11 16 6 13 -4 21 -2 21 6 0 8 4 8 16 -2
9 -7 18 -9 22 -3z m1073 -13 c-12 -20 -14 -14 -5 12 4 9 9 14 11 11 3 -2 0
-13 -6 -23z m1945 18 c-3 -5 1 -11 8 -14 8 -3 16 -1 19 6 2 7 5 5 9 -4 4 -11
-2 -15 -23 -14 -21 0 -29 5 -29 17 0 10 5 18 11 18 5 0 8 -4 5 -9z m935 -18
c-12 -20 -14 -14 -5 12 4 9 9 14 11 11 3 -2 0 -13 -6 -23z m-4136 7 c3 -6 -1
-7 -9 -4 -18 7 -21 14 -7 14 6 0 13 -4 16 -10z m40 0 c-3 -5 -12 -10 -18 -10
-7 0 -6 4 3 10 19 12 23 12 15 0z m5580 1 c3 -5 1 -12 -5 -16 -5 -3 -10 1 -10
9 0 18 6 21 15 7z m-5718 -8 c-4 -3 -1 -13 6 -22 10 -14 10 -14 -4 -4 -9 7
-20 9 -25 5 -4 -4 -2 1 5 11 7 9 16 17 19 17 3 0 2 -3 -1 -7z m1543 1 c0 -8
-19 -13 -24 -6 -3 5 1 9 9 9 8 0 15 -2 15 -3z m-1034 -31 c-10 -10 -19 5 -10
18 6 11 8 11 12 0 2 -7 1 -15 -2 -18z m-572 8 c-7 -8 -54 -9 -49 -1 2 3 15 6
29 6 14 0 23 -2 20 -5z m126 5 c0 -2 -7 -7 -16 -10 -8 -3 -12 -2 -9 4 6 10 25
14 25 6z m140 -2 c0 -8 -19 -13 -24 -6 -3 5 1 9 9 9 8 0 15 -2 15 -3z m60 0
c0 -8 -19 -13 -24 -6 -3 5 1 9 9 9 8 0 15 -2 15 -3z m34 -2 c3 -5 -1 -9 -9 -9
-8 0 -15 4 -15 9 0 4 4 8 9 8 6 0 12 -4 15 -8z m1001 -10 c-3 -3 -11 0 -18 7
-9 10 -8 11 6 5 10 -3 15 -9 12 -12z m1070 8 c3 -5 1 -10 -4 -10 -6 0 -11 5
-11 10 0 6 2 10 4 10 3 0 8 -4 11 -10z m3029 -6 c3 -8 2 -12 -4 -9 -6 3 -10
10 -10 16 0 14 7 11 14 -7z m-781 -21 c-7 -2 -19 -2 -25 0 -7 3 -2 5 12 5 14
0 19 -2 13 -5z m-2473 -453 c0 -5 -5 -10 -11 -10 -5 0 -7 5 -4 10 3 6 8 10 11
10 2 0 4 -4 4 -10z m2075 -9 c3 -5 2 -12 -3 -15 -5 -3 -9 1 -9 9 0 17 3 19 12
6z m-3416 -18 c47 -2 80 2 90 10 12 9 13 9 7 0 -5 -10 2 -13 26 -13 19 0 40 6
47 13 9 7 11 8 8 1 -5 -9 52 -12 221 -12 616 -1 654 -2 648 -20 -6 -16 -5 -16
7 0 14 17 15 17 306 18 60 0 100 5 109 13 13 9 14 9 8 0 -5 -10 4 -13 33 -13
26 0 41 5 41 13 0 9 2 9 8 0 10 -16 251 -16 271 0 12 9 13 9 7 0 -5 -10 79
-12 387 -12 217 0 398 -1 403 -2 5 -1 14 -1 19 0 21 4 359 0 363 -4 2 -2 15 0
28 5 13 5 24 6 24 2 0 -4 36 -7 79 -7 44 0 77 4 74 8 -3 5 3 5 13 0 11 -5 29
-8 42 -7 13 1 21 -3 19 -10 -3 -6 -11 -10 -18 -8 -8 2 -10 0 -6 -5 5 -4 16 -8
25 -8 9 0 16 -6 15 -12 -2 -7 2 -13 7 -13 14 0 13 13 -2 28 -9 9 -9 15 0 24 9
9 12 8 12 -5 0 -9 5 -17 11 -17 5 0 8 4 4 9 -3 5 0 13 6 17 8 5 9 3 4 -6 -6
-10 -4 -12 8 -7 11 4 14 2 10 -9 -3 -7 0 -14 7 -14 7 0 10 -7 6 -15 -6 -16 22
-35 42 -28 6 3 12 0 12 -6 0 -6 -5 -10 -12 -8 -8 1 -13 -10 -13 -29 -1 -24 2
-31 13 -27 7 3 9 9 4 12 -5 3 0 19 11 36 10 17 17 22 14 13 -5 -14 -1 -16 23
-13 16 2 34 6 40 10 5 3 7 0 4 -9 -3 -8 -14 -13 -25 -11 -10 2 -21 -1 -25 -6
-10 -17 4 -23 21 -9 12 10 15 10 15 -1 0 -12 2 -12 9 0 7 11 10 10 14 -5 5
-18 6 -18 5 1 -1 36 2 38 20 15 18 -22 50 -21 37 1 -4 5 -1 9 5 9 6 0 8 4 5
10 -4 6 1 7 11 3 12 -4 15 -3 10 5 -10 17 -1 15 14 -4 8 -8 9 -14 4 -13 -23 4
-32 -2 -27 -21 8 -30 21 -34 15 -4 -2 14 -1 24 4 23 20 -3 34 2 34 12 0 5 -4
8 -8 5 -4 -2 -13 4 -20 14 -9 14 -9 21 0 26 7 4 8 3 4 -4 -4 -8 3 -16 18 -22
14 -5 26 -15 27 -22 0 -10 2 -10 6 0 4 10 8 10 21 0 16 -12 16 -11 2 6 -14 18
-13 19 2 13 13 -4 16 -2 11 11 -5 14 -3 15 8 5 7 -7 18 -13 24 -13 5 0 1 7 -9
15 -13 10 -23 12 -32 5 -8 -7 -13 -6 -17 3 -6 15 33 16 67 2 14 -6 17 -4 14 6
-2 7 -19 14 -39 14 -19 0 -33 5 -31 10 1 6 14 9 28 8 14 -1 22 2 19 8 -10 15
18 6 32 -11 11 -13 12 -13 7 2 -5 15 -2 16 25 8 17 -5 29 -5 27 -1 -3 4 22 7
55 7 65 -1 75 -14 42 -52 -10 -10 -28 -37 -39 -59 -12 -22 -41 -76 -64 -120
-23 -44 -59 -109 -80 -145 -20 -36 -56 -100 -79 -143 -23 -43 -64 -119 -92
-168 -27 -50 -46 -95 -43 -101 4 -7 3 -8 -4 -4 -11 6 -16 -6 -13 -26 0 -5 -3
-8 -8 -8 -15 0 -183 -308 -175 -321 4 -7 3 -9 -4 -5 -10 6 -37 -37 -184 -304
-100 -180 -121 -217 -189 -337 -33 -57 -59 -105 -59 -109 0 -3 -24 -46 -54
-97 -54 -93 -66 -115 -171 -307 -32 -58 -87 -157 -123 -220 -36 -63 -80 -142
-97 -175 -17 -33 -56 -103 -87 -155 -30 -52 -68 -120 -85 -150 -17 -30 -90
-163 -163 -295 -73 -132 -144 -264 -158 -293 -15 -29 -31 -51 -36 -49 -5 2
-24 30 -41 63 -96 181 -116 224 -109 235 5 8 3 9 -6 4 -10 -6 -12 -4 -7 9 6
14 3 17 -10 12 -10 -4 -14 -4 -10 0 4 4 1 14 -6 23 -11 14 -10 14 6 2 23 -18
22 -9 -3 19 -12 13 -18 30 -16 37 3 7 1 13 -4 13 -6 0 -10 7 -10 15 0 8 -5 15
-11 15 -6 0 -9 9 -6 20 3 11 2 18 -3 15 -8 -5 -43 67 -43 90 0 8 -5 11 -10 8
-7 -4 -8 1 -3 12 6 16 4 16 -11 4 -13 -11 -15 -11 -9 -1 5 8 1 21 -10 33 -17
19 -17 20 2 14 14 -5 13 -3 -4 7 -12 8 -19 17 -16 21 4 4 2 7 -4 7 -7 0 -11 6
-10 13 2 6 -3 11 -10 9 -10 -2 -10 2 -1 19 8 15 8 19 0 15 -6 -4 -11 -2 -11 5
0 8 -5 7 -17 -2 -13 -11 -15 -11 -9 -1 5 8 1 21 -11 34 -10 11 -18 23 -18 27
0 3 -3 5 -7 4 -4 -2 -3 9 3 24 6 15 7 24 3 20 -4 -4 -14 -1 -23 6 -14 11 -14
10 -2 -5 21 -28 7 -21 -18 8 l-22 26 23 -6 23 -6 -22 11 c-21 11 -24 17 -22
35 0 3 -9 14 -21 24 -12 10 -20 20 -19 22 2 3 -30 67 -62 124 -10 19 -28 51
-40 72 -71 127 -84 148 -92 153 -5 3 -8 8 -7 10 1 2 -3 17 -9 32 -7 17 -15 25
-23 21 -6 -4 -8 -3 -5 4 9 14 -3 43 -14 36 -5 -3 -6 2 -3 11 4 9 0 23 -8 33
-7 9 -20 29 -27 44 -8 15 -18 25 -22 22 -5 -3 -6 2 -3 10 3 9 1 16 -6 16 -6 0
-9 4 -6 9 4 5 3 11 -1 13 -5 1 -21 29 -36 61 -17 34 -33 54 -39 51 -6 -4 -8
-2 -5 3 10 16 -63 154 -77 146 -6 -3 -8 -3 -4 2 11 11 -62 146 -75 138 -6 -3
-7 -1 -3 5 9 15 -22 75 -34 67 -6 -3 -7 1 -4 10 4 8 1 21 -5 28 -5 7 -32 52
-59 100 -27 48 -52 84 -57 80 -4 -5 -5 -3 -1 4 3 6 -7 35 -24 63 -16 28 -30
54 -30 59 0 4 -8 16 -18 27 -10 10 -19 21 -19 24 -2 12 -39 85 -44 90 -4 3
-15 24 -25 48 -10 23 -22 42 -26 42 -5 0 -8 4 -8 9 0 5 -15 36 -34 68 -18 32
-62 108 -96 168 -35 61 -67 113 -73 116 -5 3 -8 9 -7 13 3 16 -64 125 -73 119
-6 -3 -7 -1 -3 6 6 9 -41 104 -94 191 -71 115 -222 409 -182 355 4 -6 40 -11
81 -12z m3411 -29 c0 -8 -19 -13 -24 -6 -3 5 1 9 9 9 8 0 15 -2 15 -3z m282
-58 c-6 -11 -20 20 -21 44 0 8 5 4 13 -10 7 -14 10 -29 8 -34z m-115 4 c1 -11
-3 -23 -9 -26 -6 -4 -5 -10 3 -16 12 -8 12 -9 0 -6 -8 2 -15 12 -17 21 -1 10
2 14 9 10 6 -4 8 0 4 9 -3 9 -3 19 0 22 9 8 9 8 10 -14z m918 -257 c-2 -10 -4
-19 -4 -21 -1 -2 -6 0 -11 3 -8 5 -7 11 1 21 15 18 18 18 14 -3z m0 -93 c-3
-5 -12 -10 -18 -10 -7 0 -6 4 3 10 19 12 23 12 15 0z m-30 -40 c-3 -5 -12 -10
-18 -10 -7 0 -6 4 3 10 19 12 23 12 15 0z m-38 -72 c-3 -8 -6 -5 -6 6 -1 11 2
17 5 13 3 -3 4 -12 1 -19z m-17 -43 c0 -5 -5 -3 -10 5 -5 8 -10 20 -10 25 0 6
5 3 10 -5 5 -8 10 -19 10 -25z m-936 -363 c3 -5 -1 -9 -9 -9 -8 0 -12 4 -9 9
3 4 7 8 9 8 2 0 6 -4 9 -8z m-854 -2626 c0 -2 -8 -10 -17 -17 -16 -13 -17 -12
-4 4 13 16 21 21 21 13z m-43 -81 c0 -8 -4 -12 -9 -9 -5 3 -6 10 -3 15 9 13
12 11 12 -6z m7 -109 c-3 -9 -10 -16 -15 -16 -5 0 -4 9 3 20 14 22 21 20 12
-4z m-24 -32 c8 -8 9 -14 4 -12 -17 5 -55 -23 -47 -35 4 -8 1 -7 -10 1 -9 8
-22 10 -28 6 -8 -5 -9 -3 -5 5 5 7 13 10 20 8 14 -6 58 28 49 37 -4 3 -4 6 -1
6 3 0 11 -7 18 -16z"/>
<path d="M4620 6100 c12 -8 12 -10 1 -10 -8 0 -12 -2 -9 -5 3 -3 13 -2 22 1
14 5 15 9 4 15 -7 5 -17 9 -23 9 -5 0 -3 -5 5 -10z"/>
<path d="M2986 5868 c3 -4 0 -18 -6 -30 -10 -21 -10 -22 3 -5 9 11 18 14 21 8
8 -12 46 -10 46 2 0 5 -10 5 -22 1 -20 -6 -21 -5 -9 9 7 9 18 14 25 10 6 -3 8
-2 3 2 -10 11 -68 14 -61 3z"/>
<path d="M3193 5865 c0 -8 4 -12 9 -9 5 3 6 10 3 15 -9 13 -12 11 -12 -6z"/>
<path d="M3671 5867 c-8 -10 -7 -14 2 -14 8 0 14 6 14 14 0 7 -1 13 -2 13 -2
0 -8 -6 -14 -13z"/>
<path d="M3755 5869 c-4 -6 -5 -12 -2 -15 2 -3 7 2 10 11 7 17 1 20 -8 4z"/>
<path d="M3772 5855 c-12 -14 -18 -25 -13 -25 5 0 16 11 25 25 9 14 15 25 13
25 -2 0 -13 -11 -25 -25z"/>
<path d="M3914 5868 c-4 -6 -3 -8 3 -5 13 8 37 -18 29 -31 -3 -5 1 -9 9 -9 10
0 11 5 4 19 -7 13 -6 18 2 18 18 0 5 10 -19 15 -12 2 -25 -1 -28 -7z"/>
<path d="M3296 5858 c3 -4 11 -5 19 -1 21 7 19 12 -4 10 -11 0 -18 -5 -15 -9z"/>
<path d="M3454 5862 c4 -3 14 -7 22 -8 9 -1 13 0 10 4 -4 3 -14 7 -22 8 -9 1
-13 0 -10 -4z"/>
<path d="M3987 5836 c-4 -10 -1 -13 8 -9 8 3 12 9 9 14 -7 12 -11 11 -17 -5z"/>
<path d="M2633 5265 c0 -8 4 -12 9 -9 5 3 6 10 3 15 -9 13 -12 11 -12 -6z"/>
<path d="M4886 5252 c-3 -6 1 -15 9 -22 11 -9 12 -17 4 -31 -5 -11 -14 -17
-19 -14 -5 3 -11 1 -14 -4 -4 -5 2 -8 11 -6 10 2 21 4 26 4 4 1 7 9 8 19 0 10
3 12 6 5 2 -7 9 -13 15 -13 6 0 4 8 -5 18 -10 10 -15 21 -12 24 3 3 -1 11 -9
17 -8 7 -17 8 -20 3z"/>
<path d="M4870 5210 c0 -5 5 -10 10 -10 6 0 10 5 10 10 0 6 -4 10 -10 10 -5 0
-10 -4 -10 -10z"/>
<path d="M5339 5218 c-6 -20 -6 -39 0 -42 4 -3 7 6 7 20 0 20 -4 32 -7 22z"/>
<path d="M4810 5201 c0 -6 4 -12 8 -15 5 -3 9 1 9 9 0 8 -4 15 -9 15 -4 0 -8
-4 -8 -9z"/>
<path d="M4693 5165 c0 -8 4 -12 9 -9 5 3 6 10 3 15 -9 13 -12 11 -12 -6z"/>
<path d="M4810 5160 c0 -5 5 -10 11 -10 5 0 7 5 4 10 -3 6 -8 10 -11 10 -2 0
-4 -4 -4 -10z"/>
<path d="M5210 5160 c0 -5 5 -10 10 -10 6 0 10 5 10 10 0 6 -4 10 -10 10 -5 0
-10 -4 -10 -10z"/>
<path d="M4850 5139 c0 -5 5 -7 10 -4 6 3 10 8 10 11 0 2 -4 4 -10 4 -5 0 -10
-5 -10 -11z"/>
<path d="M5090 5140 c0 -5 5 -10 11 -10 5 0 7 5 4 10 -3 6 -8 10 -11 10 -2 0
-4 -4 -4 -10z"/>
<path d="M5137 5143 c-9 -8 12 -33 27 -33 6 0 3 5 -7 11 -9 6 -15 14 -12 20 7
10 2 12 -8 2z"/>
<path d="M5033 5125 c0 -8 4 -15 9 -15 4 0 8 4 8 9 0 6 -4 12 -8 15 -5 3 -9
-1 -9 -9z"/>
<path d="M5213 5125 c0 -8 4 -12 9 -9 5 3 6 10 3 15 -9 13 -12 11 -12 -6z"/>
<path d="M5309 5123 c-13 -16 -12 -17 4 -4 16 13 21 21 13 21 -2 0 -10 -8 -17
-17z"/>
<path d="M4875 5121 c-3 -5 -2 -12 3 -15 5 -3 9 1 9 9 0 17 -3 19 -12 6z"/>
<path d="M4987 5119 c7 -7 15 -10 18 -7 3 3 -2 9 -12 12 -14 6 -15 5 -6 -5z"/>
<path d="M5060 5126 c0 -2 8 -10 18 -17 15 -13 16 -12 3 4 -13 16 -21 21 -21
13z"/>
<path d="M3795 5011 c-3 -5 -2 -12 3 -15 5 -3 9 1 9 9 0 17 -3 19 -12 6z"/>
<path d="M3850 5000 c0 -5 5 -10 11 -10 5 0 7 5 4 10 -3 6 -8 10 -11 10 -2 0
-4 -4 -4 -10z"/>
<path d="M3945 4999 c-3 -4 2 -6 10 -5 21 3 28 13 10 13 -9 0 -18 -4 -20 -8z"/>
<path d="M3999 5008 c-5 -18 -6 -38 -1 -34 7 8 12 36 6 36 -2 0 -4 -1 -5 -2z"/>
<path d="M3934 4963 c3 -20 -25 -63 -41 -63 -4 0 4 11 17 25 27 28 17 34 -13
8 -19 -18 -20 -17 -7 7 12 23 12 24 -3 11 -15 -12 -21 -9 -19 9 0 3 -8 7 -19
7 -18 2 -18 0 3 -18 21 -18 21 -20 3 -13 -11 3 -30 7 -42 7 -13 1 -23 6 -23
12 0 7 -3 7 -8 0 -4 -6 -23 -11 -42 -10 -27 0 -35 -4 -35 -17 0 -10 4 -18 9
-17 9 1 26 -20 26 -33 0 -5 -8 -8 -17 -8 -15 0 -16 2 -3 10 10 7 11 10 2 10
-7 0 -15 -7 -18 -15 -5 -11 -16 -14 -45 -11 -26 3 -39 1 -39 -7 0 -7 -5 -4
-11 6 -6 10 -15 14 -22 10 -14 -8 -30 -10 -139 -16 -53 -3 -78 -1 -78 7 0 8
-2 8 -8 0 -7 -11 -39 -11 -264 -1 -63 3 -86 1 -81 -7 5 -8 3 -8 -8 0 -8 6 -28
11 -45 11 -16 0 -35 3 -42 7 -7 4 -12 3 -12 -1 0 -5 -9 -9 -20 -9 -11 0 -20 3
-20 6 0 3 -11 5 -25 5 -14 0 -25 -4 -25 -8 0 -4 -9 -3 -20 3 -15 8 -20 8 -20
-2 0 -10 -2 -10 -9 1 -7 11 -9 11 -14 0 -4 -9 -6 -10 -6 -2 -1 7 -8 10 -16 7
-8 -4 -23 0 -32 7 -9 8 -14 9 -10 3 4 -7 0 -15 -9 -18 -10 -4 -13 -2 -8 6 5 8
2 9 -9 5 -10 -3 -17 -2 -17 3 0 6 -5 10 -11 10 -5 0 -7 -6 -3 -12 6 -10 4 -10
-7 0 -16 14 -33 16 -24 2 3 -5 1 -10 -4 -10 -6 0 -11 5 -11 11 0 5 -4 8 -9 4
-5 -3 -13 0 -17 6 -5 9 -11 6 -22 -7 -13 -16 -14 -17 -9 -1 4 11 1 17 -8 17
-8 0 -15 -5 -15 -11 0 -5 -5 -7 -10 -4 -6 4 -7 11 -4 17 4 7 2 8 -5 4 -6 -4
-9 -11 -6 -16 3 -4 -2 -11 -11 -14 -12 -5 -15 -2 -10 11 5 15 4 15 -9 -1 -8
-11 -15 -16 -15 -12 0 5 -7 2 -17 -5 -15 -13 -15 -12 -5 8 17 32 15 36 -8 13
-22 -22 -66 -27 -73 -7 -4 8 -6 6 -6 -4 -1 -14 -8 -15 -41 -9 -33 6 -40 5 -40
-9 0 -12 -2 -13 -8 -4 -8 13 -68 13 -89 0 -6 -4 -15 -2 -19 4 -5 8 -3 9 6 4 8
-5 11 -4 6 3 -4 6 -13 9 -21 6 -8 -4 -12 -11 -8 -18 5 -8 3 -8 -8 0 -8 6 -24
11 -36 12 -35 1 -29 -31 22 -119 25 -43 45 -80 45 -83 0 -3 35 -67 78 -143 43
-76 85 -151 93 -168 9 -16 42 -79 76 -140 33 -60 78 -144 100 -185 22 -41 82
-149 133 -240 51 -91 102 -183 113 -205 11 -22 23 -41 28 -43 5 -2 9 -10 9
-18 0 -8 18 -42 40 -75 22 -33 40 -67 40 -74 0 -8 4 -16 9 -19 5 -4 37 -57 72
-119 60 -108 75 -134 120 -214 12 -21 30 -50 40 -65 11 -14 19 -29 19 -33 0
-4 8 -19 19 -33 10 -15 38 -65 63 -112 83 -155 115 -214 148 -275 86 -158 104
-202 82 -197 -8 1 -11 -2 -7 -8 3 -6 11 -8 16 -4 6 3 17 -3 25 -15 15 -22 41
-30 28 -9 -4 7 -3 8 5 4 6 -4 9 -11 7 -15 -3 -4 -1 -13 3 -20 6 -9 9 -4 9 14
0 15 3 30 8 34 5 3 10 14 12 24 3 20 65 139 157 302 81 144 96 171 237 425 66
118 134 238 152 265 18 28 35 58 39 68 3 9 11 17 17 17 5 0 10 7 10 15 0 7 8
18 17 24 10 5 15 13 10 17 -4 4 4 21 17 39 13 17 34 53 47 81 13 27 27 52 32
55 5 3 8 9 8 13 -2 11 62 135 130 256 36 63 77 135 91 160 14 25 49 87 79 139
35 62 49 96 41 99 -7 2 -10 8 -7 12 5 8 -45 3 -54 -6 -2 -2 -10 1 -17 6 -13
12 -36 10 -45 -4 -9 -11 -51 12 -44 25 4 5 2 9 -4 9 -5 0 -11 -5 -13 -12 -5
-14 -38 -20 -38 -7 0 6 -5 7 -10 4 -6 -4 -8 -11 -5 -16 3 -5 -1 -6 -9 -3 -8 3
-17 13 -20 21 -5 13 -4 13 7 4 11 -9 17 -7 28 5 12 15 11 16 -9 10 -14 -5 -22
-3 -22 4 0 6 5 8 10 5 6 -3 10 1 10 9 0 10 -6 13 -15 10 -8 -4 -15 -12 -15
-19 0 -7 -6 -15 -12 -18 -10 -3 -9 -8 2 -22 8 -10 10 -16 3 -12 -19 12 -46
-25 -104 -141 -30 -59 -64 -120 -75 -137 -12 -16 -34 -52 -49 -80 -14 -27 -34
-63 -44 -80 -51 -86 -270 -464 -342 -590 -178 -313 -248 -430 -258 -430 -6 0
-51 72 -102 160 -50 88 -101 178 -113 200 -13 22 -74 130 -136 240 -62 110
-116 205 -120 210 -8 11 -41 69 -98 175 -19 36 -43 76 -52 90 -9 14 -39 63
-67 110 l-49 85 38 95 c28 69 35 96 26 101 -19 12 -35 -8 -54 -64 -19 -59 -34
-82 -45 -70 -4 4 -38 67 -74 138 -76 149 -153 282 -166 291 -5 3 -9 8 -9 12 0
6 430 7 609 1 37 -1 72 1 78 4 6 4 13 4 16 1 3 -3 102 -7 219 -8 117 0 218 -4
224 -8 6 -4 14 -4 18 -1 13 13 61 8 74 -7 10 -13 11 -12 5 4 -5 14 -3 17 7 11
14 -9 90 -14 85 -5 -2 3 37 5 85 6 62 0 94 5 106 15 13 11 18 11 21 2 3 -7 9
-13 15 -13 6 0 7 7 4 16 -5 14 -4 15 9 4 12 -10 15 -10 15 0 0 9 4 9 13 2 8
-7 18 -7 27 -2 8 5 18 6 24 3 5 -3 6 -1 2 5 -4 6 -14 8 -24 5 -15 -6 -15 -5
-3 10 11 13 11 17 1 17 -8 0 -10 3 -7 7 4 3 -1 15 -10 25 -12 14 -13 18 -4 16
8 -2 14 6 16 20 1 17 -2 21 -14 17 -12 -5 -13 -3 -4 6 22 22 40 -16 21 -46 -3
-6 1 -16 9 -24 13 -12 14 -11 8 7 -5 18 -3 21 12 16 17 -5 17 -5 0 6 -13 8
-15 15 -7 30 13 23 13 33 1 25 -5 -3 -13 0 -17 6 -4 8 -3 9 4 5 7 -4 12 -1 12
9 0 10 -5 13 -12 9 -7 -4 -8 -3 -4 5 4 6 11 9 16 6 5 -3 11 -1 15 5 3 5 2 10
-4 10 -5 0 -9 9 -8 20 1 11 5 20 9 20 4 0 8 5 8 11 0 6 -9 8 -22 4 -15 -4 -19
-3 -10 3 18 12 12 33 -17 56 -26 21 -55 31 -45 15 3 -5 9 -7 14 -4 5 3 17 -9
26 -27 l17 -33 -27 28 c-19 21 -32 27 -47 22 -15 -5 -19 -4 -14 5 6 9 3 9 -14
1 -18 -10 -23 -9 -31 11 -10 22 -10 22 -6 1z m-92 -43 c11 -12 10 -12 -4 -1
-15 11 -19 11 -24 -3 -3 -9 -10 -16 -16 -16 -5 0 -7 4 -3 9 3 5 1 12 -4 15 -5
3 -12 -1 -15 -9 -3 -9 1 -18 10 -22 14 -5 14 -7 -2 -16 -20 -11 -24 -11 -25 1
-1 12 -31 42 -39 37 -4 -2 -7 2 -7 9 0 18 112 15 129 -4z m148 6 c0 -3 -4 -8
-10 -11 -5 -3 -10 -1 -10 4 0 6 5 11 10 11 6 0 10 -2 10 -4z m-112 -31 c-3 -3
-9 2 -12 12 -6 14 -5 15 5 6 7 -7 10 -15 7 -18z m-51 -10 c-15 -16 -19 -13
-11 9 3 9 10 13 15 10 5 -3 3 -11 -4 -19z m229 -225 c0 -18 -4 -26 -10 -22 -6
4 -14 7 -18 7 -3 0 -10 4 -15 8 -4 5 -3 8 2 7 21 -5 27 0 17 13 -8 10 -7 13 7
14 13 1 17 -6 17 -27z"/>
<path d="M3741 4924 c-1 -6 6 -17 14 -24 8 -7 12 -17 8 -23 -4 -6 -1 -7 6 -2
9 5 9 11 3 17 -6 6 -8 18 -5 27 4 13 3 13 -5 2 -8 -11 -10 -11 -15 0 -3 8 -6
9 -6 3z"/>
<path d="M3955 4970 c-3 -6 1 -7 9 -4 18 7 21 14 7 14 -6 0 -13 -4 -16 -10z"/>
<path d="M4096 4966 c3 -8 14 -14 24 -13 17 1 18 12 2 12 -4 0 -13 4 -19 8 -9
6 -11 3 -7 -7z"/>
<path d="M4070 4958 c0 -9 7 -19 16 -22 8 -3 13 -10 10 -15 -3 -5 1 -14 10
-21 8 -7 13 -19 10 -26 -3 -7 0 -15 7 -18 7 -2 4 -5 -6 -5 -10 -1 -15 -5 -12
-11 9 -15 19 -12 33 11 8 12 10 19 5 16 -5 -3 -14 6 -20 19 -11 23 -10 24 10
20 12 -3 16 -3 10 0 -7 3 -13 13 -13 21 0 9 -6 13 -15 9 -8 -3 -21 4 -30 17
-11 16 -15 18 -15 5z"/>
<path d="M4150 4962 c0 -5 7 -9 15 -9 8 0 12 4 9 9 -3 4 -9 8 -15 8 -5 0 -9
-4 -9 -8z"/>
<path d="M2510 4917 c0 -5 10 -5 21 -2 16 6 20 4 14 -6 -5 -8 -5 -11 0 -7 4 4
13 3 20 -2 8 -7 12 -5 12 5 0 8 -4 12 -8 9 -4 -2 -10 0 -14 5 -7 12 -45 10
-45 -2z"/>
<path d="M2593 4915 c0 -8 4 -12 9 -9 4 3 8 9 8 15 0 5 -4 9 -8 9 -5 0 -9 -7
-9 -15z"/>
<path d="M3546 4918 c3 -5 10 -6 15 -3 13 9 11 12 -6 12 -8 0 -12 -4 -9 -9z"/>
<path d="M3680 4910 c13 -25 2 -26 -17 -2 -12 15 -12 13 -2 -10 13 -30 25 -36
32 -15 5 17 -3 47 -15 47 -5 0 -4 -9 2 -20z"/>
<path d="M4140 4885 c0 -7 30 -13 34 -7 3 4 -4 9 -15 9 -10 1 -19 0 -19 -2z"/>
<path d="M4155 4850 c-3 -5 -3 -10 2 -10 4 0 1 -5 -7 -11 -12 -8 -12 -10 -1
-7 8 2 15 12 17 21 3 19 -2 22 -11 7z"/>
<path d="M4105 4810 c-3 -5 -2 -18 4 -28 6 -11 6 -25 0 -37 -10 -18 -9 -19 4
-3 8 10 18 14 23 10 4 -4 3 0 -4 10 -8 10 -9 18 -3 22 11 7 4 36 -9 36 -5 0
-12 -4 -15 -10z m20 -10 c3 -5 1 -10 -4 -10 -6 0 -11 5 -11 10 0 6 2 10 4 10
3 0 8 -4 11 -10z"/>
<path d="M4150 4686 c0 -2 7 -7 16 -10 8 -3 12 -2 9 4 -6 10 -25 14 -25 6z"/>
<path d="M4100 4656 c6 -6 18 -5 32 1 21 10 21 10 -9 9 -19 -1 -28 -5 -23 -10z"/>
<path d="M4229 4643 c-13 -16 -12 -17 4 -4 16 13 21 21 13 21 -2 0 -10 -8 -17
-17z"/>
<path d="M4135 4641 c-3 -5 -2 -12 3 -15 5 -3 9 1 9 9 0 17 -3 19 -12 6z"/>
<path d="M3870 4576 c7 -7 13 -7 20 0 6 6 3 10 -10 10 -13 0 -16 -4 -10 -10z"/>
<path d="M4413 4369 c-6 -21 -7 -21 -20 -4 -11 16 -13 17 -13 3 0 -9 5 -20 10
-23 6 -4 8 -10 5 -15 -3 -4 2 -10 10 -13 8 -4 16 2 20 14 5 16 10 18 21 8 7
-6 12 -15 9 -19 -3 -4 2 -10 10 -14 8 -3 17 -1 20 5 4 5 11 7 16 4 5 -4 9 -2
9 3 0 6 -7 13 -16 16 -14 5 -14 9 -3 24 12 15 12 16 -2 5 -9 -7 -20 -9 -24 -5
-5 4 -5 1 -1 -5 4 -7 2 -13 -4 -13 -6 0 -13 7 -17 16 -5 13 -8 13 -15 2 -7 -9
-8 -7 -5 10 6 28 -3 29 -10 1z m72 -38 c3 -5 2 -12 -3 -15 -5 -3 -9 1 -9 9 0
17 3 19 12 6z"/>
<path d="M4450 4380 c0 -5 5 -10 11 -10 5 0 7 5 4 10 -3 6 -8 10 -11 10 -2 0
-4 -4 -4 -10z"/>
<path d="M4510 4350 c-9 -6 -10 -10 -3 -10 6 0 15 5 18 10 8 12 4 12 -15 0z"/>
<path d="M4531 4336 c-16 -19 9 -39 29 -25 13 9 13 9 0 7 -9 -2 -16 2 -17 7
-1 6 5 9 13 7 18 -4 18 4 0 11 -8 3 -19 0 -25 -7z"/>
<path d="M3137 4295 c-16 -15 -17 -399 -2 -414 10 -9 75 -14 178 -12 40 1 47
4 47 21 0 18 -7 19 -89 18 -48 0 -93 2 -98 5 -6 4 -9 17 -9 29 1 13 -2 31 -6
41 -5 9 -5 17 0 17 4 0 6 16 4 35 -5 39 -17 36 126 37 54 0 62 2 62 19 0 16
-10 19 -92 21 l-93 3 -2 78 -2 77 47 1 c26 0 65 1 87 1 57 -1 80 7 66 21 -17
17 -208 18 -224 2z"/>
<path d="M3699 4300 c-6 -4 -8 -86 -7 -216 3 -178 5 -209 18 -209 12 0 15 16
15 83 0 45 3 83 7 83 5 1 17 1 28 1 68 0 67 1 111 -87 31 -61 48 -85 62 -85
23 0 17 22 -22 89 -43 73 -44 79 -10 86 36 8 43 32 42 144 -2 113 -5 116 -134
116 -55 1 -104 -2 -110 -5z m198 -35 c14 -5 14 -173 0 -182 -16 -10 -158 -9
-165 1 -11 19 -9 168 3 180 11 10 133 12 162 1z"/>
<path d="M4200 3493 c-14 -20 -24 -41 -22 -47 2 -6 -4 -16 -13 -23 -16 -11
-16 -12 3 -10 11 0 18 5 16 9 -5 8 10 12 36 8 11 -1 10 2 -4 13 -13 10 -15 16
-8 21 7 4 12 1 12 -6 0 -8 5 -6 11 5 8 13 7 22 -3 34 -11 15 -11 16 6 10 16
-6 17 -5 6 8 -7 8 -13 15 -14 15 0 0 -12 -17 -26 -37z m30 -16 c0 -8 -3 -8 -9
1 -6 11 -10 10 -16 -5 -5 -10 -7 -22 -6 -26 1 -5 -3 -6 -9 -2 -6 4 -4 15 6 30
16 24 34 25 34 2z"/>
<path d="M4150 3385 c0 -5 5 -17 10 -25 5 -8 10 -10 10 -5 0 6 -5 17 -10 25
-5 8 -10 11 -10 5z"/>
<path d="M4190 3381 c0 -6 4 -13 10 -16 6 -3 7 1 4 9 -7 18 -14 21 -14 7z"/>
<path d="M3065 2460 c-3 -6 1 -7 9 -4 18 7 21 14 7 14 -6 0 -13 -4 -16 -10z"/>
<path d="M3078 2423 c7 -3 16 -2 19 1 4 3 -2 6 -13 5 -11 0 -14 -3 -6 -6z"/>
<path d="M3453 2260 c17 -13 24 -27 21 -38 -5 -15 -4 -15 6 1 9 14 7 21 -12
37 -13 11 -27 19 -32 20 -5 0 3 -9 17 -20z"/>
<path d="M3435 2240 c3 -5 8 -10 11 -10 2 0 4 5 4 10 0 6 -5 10 -11 10 -5 0
-7 -4 -4 -10z"/>
<path d="M3473 2175 c0 -8 4 -12 9 -9 5 3 6 10 3 15 -9 13 -12 11 -12 -6z"/>
<path d="M4814 6129 c-3 -6 -2 -15 3 -20 5 -5 9 -1 9 11 0 23 -2 24 -12 9z"/>
<path d="M4373 6115 c0 -8 4 -12 9 -9 4 3 8 9 8 15 0 5 -4 9 -8 9 -5 0 -9 -7
-9 -15z"/>
<path d="M4241 6113 c-1 -17 16 -25 25 -12 4 7 3 9 -4 5 -5 -3 -13 0 -15 6 -4
9 -6 10 -6 1z"/>
<path d="M4316 6107 c3 -10 9 -15 12 -12 3 3 0 11 -7 18 -10 9 -11 8 -5 -6z"/>
<path d="M4095 6101 c-3 -5 -2 -12 3 -15 5 -3 9 1 9 9 0 17 -3 19 -12 6z"/>
<path d="M4135 6100 c-3 -5 -1 -10 4 -10 6 0 11 5 11 10 0 6 -2 10 -4 10 -3 0
-8 -4 -11 -10z"/>
<path d="M4953 6087 c0 -8 6 -14 14 -14 9 0 10 4 2 14 -6 7 -12 13 -14 13 -1
0 -2 -6 -2 -13z"/>
<path d="M4117 6073 c-10 -9 -9 -23 1 -23 5 0 9 7 9 15 0 17 -1 18 -10 8z"/>
<path d="M4176 6063 c-6 -14 -5 -15 5 -6 7 7 10 15 7 18 -3 3 -9 -2 -12 -12z"/>
<path d="M3910 6060 c0 -5 5 -10 11 -10 5 0 7 5 4 10 -3 6 -8 10 -11 10 -2 0
-4 -4 -4 -10z"/>
<path d="M4070 6066 c0 -2 7 -7 16 -10 8 -3 12 -2 9 4 -6 10 -25 14 -25 6z"/>
<path d="M5019 6068 c-4 -15 -6 -50 -2 -40 3 9 9 10 17 3 9 -8 13 -7 13 4 0 7
-5 13 -11 12 -6 -1 -10 4 -8 11 2 10 -6 19 -9 10z"/>
<path d="M4263 6053 c-7 -2 -13 -9 -13 -15 0 -7 5 -7 13 1 8 6 18 7 22 3 5 -4
5 -1 1 6 -4 6 -8 12 -9 11 -1 0 -8 -3 -14 -6z"/>
<path d="M2770 6040 c0 -5 5 -10 11 -10 5 0 7 5 4 10 -3 6 -8 10 -11 10 -2 0
-4 -4 -4 -10z"/>
<path d="M3939 6033 c-12 -16 -12 -17 2 -6 9 7 20 9 24 5 5 -4 5 -1 1 6 -9 16
-11 15 -27 -5z"/>
<path d="M4030 6040 c0 -5 5 -10 11 -10 5 0 7 5 4 10 -3 6 -8 10 -11 10 -2 0
-4 -4 -4 -10z"/>
<path d="M4130 6040 c-8 -5 -10 -10 -5 -10 6 0 17 5 25 10 8 5 11 10 5 10 -5
0 -17 -5 -25 -10z"/>
<path d="M4170 6030 c0 -7 -3 -10 -6 -7 -4 3 -16 1 -27 -4 -15 -8 -22 -8 -29
2 -7 11 -8 9 -4 -4 3 -10 6 -21 6 -24 0 -3 7 0 15 7 11 9 18 10 29 1 19 -16
45 14 28 31 -9 9 -12 9 -12 -2z m10 -16 c0 -8 -19 -13 -24 -6 -3 5 1 9 9 9 8
0 15 -2 15 -3z"/>
<path d="M2425 6020 c-3 -6 1 -7 9 -4 18 7 21 14 7 14 -6 0 -13 -4 -16 -10z"/>
<path d="M2544 6018 c-3 -4 5 -5 17 -3 30 6 36 14 9 12 -12 -1 -24 -5 -26 -9z"/>
<path d="M2630 6020 c0 -5 5 -10 11 -10 5 0 7 5 4 10 -3 6 -8 10 -11 10 -2 0
-4 -4 -4 -10z"/>
<path d="M2276 6007 c3 -10 9 -15 12 -12 3 3 0 11 -7 18 -10 9 -11 8 -5 -6z"/>
<path d="M3989 6011 c9 -6 10 -11 2 -15 -6 -4 -11 -11 -11 -17 0 -5 8 -1 18 9
17 16 11 32 -13 32 -5 0 -4 -4 4 -9z"/>
<path d="M2210 6000 c-9 -6 -10 -10 -3 -10 6 0 15 5 18 10 8 12 4 12 -15 0z"/>
<path d="M2596 5998 c3 -5 10 -6 15 -3 13 9 11 12 -6 12 -8 0 -12 -4 -9 -9z"/>
<path d="M2837 5995 c-6 -15 10 -32 20 -21 4 3 1 6 -5 6 -6 0 -9 7 -6 15 4 8
4 15 1 15 -3 0 -7 -7 -10 -15z"/>
<path d="M3626 6002 c-3 -5 1 -9 9 -9 8 0 12 4 9 9 -3 4 -7 8 -9 8 -2 0 -6 -4
-9 -8z"/>
<path d="M3801 5996 c-9 -11 -9 -16 1 -22 7 -4 10 -4 6 1 -4 4 -3 14 3 22 6 7
9 13 6 13 -2 0 -10 -6 -16 -14z"/>
<path d="M3855 6000 c-2 -3 7 -7 20 -8 13 -1 26 2 29 6 2 4 -7 7 -21 7 -14 0
-26 -2 -28 -5z"/>
<path d="M3920 5995 c-7 -9 -11 -17 -9 -20 3 -2 10 5 17 15 14 24 10 26 -8 5z"/>
<path d="M2875 5971 c-3 -5 -2 -12 3 -15 5 -3 9 1 9 9 0 17 -3 19 -12 6z"/>
<path d="M3711 5967 c-8 -10 -7 -14 2 -14 8 0 14 6 14 14 0 7 -1 13 -2 13 -2
0 -8 -6 -14 -13z"/>
<path d="M2073 5960 c-13 -5 -23 -11 -23 -14 0 -7 40 6 46 15 6 10 6 10 -23
-1z"/>
<path d="M3893 5959 c9 -6 15 -14 12 -20 -3 -5 1 -6 10 -3 14 6 14 8 -2 20
-10 7 -22 13 -28 13 -5 0 -2 -4 8 -10z"/>
<path d="M4066 5954 c-5 -14 -4 -15 9 -4 17 14 19 20 6 20 -5 0 -12 -7 -15
-16z"/>
<path d="M5135 5959 c-4 -6 -5 -12 -2 -15 2 -3 7 2 10 11 7 17 1 20 -8 4z"/>
<path d="M5160 5965 c0 -2 6 -8 13 -14 10 -8 14 -7 14 2 0 8 -6 14 -14 14 -7
0 -13 -1 -13 -2z"/>
<path d="M3838 5953 c7 -3 16 -2 19 1 4 3 -2 6 -13 5 -11 0 -14 -3 -6 -6z"/>
<path d="M3656 5937 c3 -10 9 -15 12 -12 3 3 0 11 -7 18 -10 9 -11 8 -5 -6z"/>
<path d="M3870 5939 c0 -5 5 -7 10 -4 6 3 10 8 10 11 0 2 -4 4 -10 4 -5 0 -10
-5 -10 -11z"/>
<path d="M1140 5926 c0 -2 8 -10 18 -17 15 -13 16 -12 3 4 -13 16 -21 21 -21
13z"/>
<path d="M390 5910 c-8 -5 -10 -10 -5 -10 6 0 17 5 25 10 8 5 11 10 5 10 -5 0
-17 -5 -25 -10z"/>
<path d="M436 5912 c-3 -4 4 -9 15 -9 23 -2 25 3 4 10 -8 4 -16 3 -19 -1z"/>
<path d="M499 5908 c14 -19 32 -15 30 5 0 8 -2 8 -6 -1 -4 -10 -8 -10 -21 0
-15 12 -16 11 -3 -4z"/>
<path d="M730 5905 c0 -7 30 -13 34 -7 3 4 -4 9 -15 9 -10 1 -19 0 -19 -2z"/>
<path d="M772 5890 c-14 -23 2 -37 23 -20 11 9 15 9 15 1 0 -6 5 -11 11 -11 8
0 7 5 -1 15 -9 11 -16 13 -24 5 -16 -16 -30 -12 -16 5 7 9 11 17 9 20 -3 2
-10 -4 -17 -15z"/>
<path d="M845 5900 c-3 -6 1 -7 9 -4 18 7 21 14 7 14 -6 0 -13 -4 -16 -10z"/>
<path d="M6230 5901 c0 -6 4 -13 10 -16 6 -3 7 1 4 9 -7 18 -14 21 -14 7z"/>
<path d="M6086 5883 c-6 -14 -5 -15 5 -6 7 7 10 15 7 18 -3 3 -9 -2 -12 -12z"/>
<path d="M6160 5886 c7 -7 13 -7 20 0 6 6 3 10 -10 10 -13 0 -16 -4 -10 -10z"/>
<path d="M6404 5884 c-18 -14 -18 -15 4 -4 12 6 22 13 22 15 0 8 -5 6 -26 -11z"/>
<path d="M680 5879 c0 -5 -5 -7 -12 -3 -7 4 -8 3 -4 -5 6 -9 11 -9 22 0 17 14
18 19 4 19 -5 0 -10 -5 -10 -11z"/>
<path d="M901 5883 c-2 -20 11 -43 20 -37 5 3 9 10 9 15 0 6 -4 8 -9 4 -5 -3
-12 3 -14 12 -3 10 -5 13 -6 6z"/>
<path d="M1908 5873 c6 -2 9 -10 6 -15 -4 -7 -2 -8 5 -4 13 9 5 26 -12 25 -9
0 -8 -2 1 -6z"/>
<path d="M1960 5870 c-23 -7 -23 -8 -3 -9 12 -1 25 4 28 9 3 6 5 10 3 9 -2 -1
-14 -5 -28 -9z"/>
<path d="M5095 5857 c-10 -8 -14 -17 -9 -20 6 -3 15 3 22 14 14 23 12 24 -13
6z"/>
<path d="M1195 5851 c-3 -5 -2 -12 3 -15 5 -3 9 1 9 9 0 17 -3 19 -12 6z"/>
<path d="M5265 5840 c10 -11 20 -20 23 -20 3 0 -3 9 -13 20 -10 11 -20 20 -23
20 -3 0 3 -9 13 -20z"/>
<path d="M6270 5856 c0 -2 6 -9 14 -15 11 -9 16 -9 22 0 4 8 3 9 -4 5 -7 -4
-12 -2 -12 3 0 6 -4 11 -10 11 -5 0 -10 -2 -10 -4z"/>
<path d="M6365 5840 c-2 -3 9 -6 25 -5 15 0 26 3 24 7 -5 8 -44 6 -49 -2z"/>
<path d="M5235 5830 c-3 -5 -1 -10 4 -10 6 0 11 5 11 10 0 6 -2 10 -4 10 -3 0
-8 -4 -11 -10z"/>
<path d="M1953 5815 c0 -8 4 -15 9 -15 4 0 8 7 8 15 0 8 -4 15 -8 15 -5 0 -9
-7 -9 -15z"/>
<path d="M1147 5809 c7 -7 15 -10 18 -7 3 3 -2 9 -12 12 -14 6 -15 5 -6 -5z"/>
<path d="M1180 5815 c0 -7 30 -13 34 -7 3 4 -4 9 -15 9 -10 1 -19 0 -19 -2z"/>
<path d="M5997 5813 c-11 -11 -8 -20 7 -20 8 0 12 6 9 14 -6 15 -7 15 -16 6z"/>
<path d="M6504 5806 c13 -11 15 -16 6 -16 -10 0 -9 -5 4 -19 16 -17 16 -19 -1
-26 -10 -5 -22 -7 -26 -6 -4 1 -3 -8 3 -20 7 -13 17 -18 27 -15 11 5 13 2 9
-10 -3 -8 -6 -18 -6 -20 0 -3 -4 -3 -8 0 -5 3 -9 0 -10 -7 -2 -23 -8 -42 -17
-57 -8 -13 -7 -13 8 -1 9 7 15 17 12 21 -3 5 6 21 20 38 19 22 22 32 12 41 -9
10 -8 11 5 6 11 -4 18 0 23 14 3 11 17 37 32 58 l25 38 -24 -23 c-14 -12 -28
-19 -32 -15 -4 4 -4 0 -1 -9 7 -17 -37 -68 -56 -68 -18 0 -8 17 16 30 18 10
22 16 13 22 -10 6 -10 8 0 8 6 0 12 5 12 11 0 8 -5 8 -15 -1 -15 -13 -21 -1
-7 16 4 5 6 8 3 7 -2 -1 -13 2 -25 8 -20 10 -20 10 -2 -5z"/>
<path d="M5565 5799 c-4 -6 -5 -12 -2 -15 2 -3 7 2 10 11 7 17 1 20 -8 4z"/>
<path d="M5590 5790 c0 -5 5 -10 11 -10 5 0 7 5 4 10 -3 6 -8 10 -11 10 -2 0
-4 -4 -4 -10z"/>
<path d="M6285 5259 c-4 -6 -5 -12 -2 -15 2 -3 7 2 10 11 7 17 1 20 -8 4z"/>
<path d="M6074 4966 c1 -8 5 -18 8 -22 4 -3 5 1 4 10 -1 8 -5 18 -8 22 -4 3
-5 -1 -4 -10z"/>
<path d="M5795 4540 c-3 -5 -1 -10 4 -10 6 0 11 5 11 10 0 6 -2 10 -4 10 -3 0
-8 -4 -11 -10z"/>
<path d="M1270 4381 c0 -6 4 -13 10 -16 6 -3 7 1 4 9 -7 18 -14 21 -14 7z"/>
<path d="M1287 4319 c7 -7 15 -10 18 -7 3 3 -2 9 -12 12 -14 6 -15 5 -6 -5z"/>
<path d="M1325 4221 c-3 -5 -2 -12 3 -15 5 -3 9 1 9 9 0 17 -3 19 -12 6z"/>
<path d="M1460 4000 c8 -5 20 -10 25 -10 6 0 3 5 -5 10 -8 5 -19 10 -25 10 -5
0 -3 -5 5 -10z"/>
<path d="M5311 3552 c-11 -16 -18 -32 -14 -36 3 -3 1 -6 -5 -6 -7 0 -12 -6
-12 -12 0 -7 -9 -24 -20 -38 -24 -31 -26 -51 -2 -24 18 20 40 64 38 76 0 4 8
14 19 22 11 9 16 16 10 16 -5 0 -3 4 5 10 8 5 12 12 8 15 -3 3 -15 -7 -27 -23z"/>
<path d="M5216 3388 c-8 -12 -13 -25 -11 -28 3 -4 -2 -13 -10 -20 -8 -7 -12
-16 -9 -21 3 -5 0 -9 -6 -9 -6 0 -8 -4 -5 -10 3 -5 2 -10 -4 -10 -6 0 -15 -9
-21 -20 -6 -11 -7 -20 -2 -20 11 0 40 41 44 62 2 7 9 19 16 26 7 8 10 18 7 23
-4 5 -1 9 6 9 7 0 9 3 6 7 -4 3 1 12 11 19 9 8 12 14 5 14 -6 0 -19 -10 -27
-22z"/>
<path d="M5120 3221 c0 -6 4 -13 10 -16 6 -3 7 1 4 9 -7 18 -14 21 -14 7z"/>
<path d="M5075 3140 c-3 -5 -1 -10 4 -10 6 0 11 5 11 10 0 6 -2 10 -4 10 -3 0
-8 -4 -11 -10z"/>
<path d="M5051 3084 c-12 -19 -16 -32 -11 -29 11 7 43 65 36 65 -2 0 -13 -16
-25 -36z"/>
<path d="M4990 2979 c0 -5 5 -7 10 -4 6 3 10 8 10 11 0 2 -4 4 -10 4 -5 0 -10
-5 -10 -11z"/>
<path d="M4956 2932 c-3 -5 1 -9 9 -9 8 0 12 4 9 9 -3 4 -7 8 -9 8 -2 0 -6 -4
-9 -8z"/>
<path d="M4945 2900 c-3 -5 -2 -10 4 -10 5 0 13 5 16 10 3 6 2 10 -4 10 -5 0
-13 -4 -16 -10z"/>
<path d="M4925 2860 c3 -5 8 -10 11 -10 2 0 4 5 4 10 0 6 -5 10 -11 10 -5 0
-7 -4 -4 -10z"/>
<path d="M4905 2840 c-3 -5 -3 -10 0 -10 4 0 -3 -13 -15 -30 -12 -16 -17 -30
-12 -30 9 0 33 43 38 68 3 15 -3 16 -11 2z"/>
<path d="M4840 2713 c-17 -36 -21 -55 -8 -47 5 3 7 8 4 11 -3 3 4 19 15 34 11
16 16 29 11 29 -5 0 -15 -12 -22 -27z"/>
<path d="M4804 2652 c3 -5 0 -13 -6 -15 -9 -4 -10 -6 -1 -6 17 -1 25 16 12 25
-7 4 -9 3 -5 -4z"/>
<path d="M4770 2590 c-9 -6 -10 -10 -3 -10 6 0 15 5 18 10 8 12 4 12 -15 0z"/>
<path d="M4742 2553 c1 -4 -6 -23 -16 -41 -9 -19 -16 -35 -14 -37 2 -2 13 14
25 36 12 22 17 41 12 45 -5 3 -8 2 -7 -3z"/>
<path d="M4455 2231 c-3 -5 0 -13 6 -17 7 -4 9 -3 5 4 -3 5 0 13 6 15 9 4 10
6 1 6 -6 1 -14 -3 -18 -8z"/>
<path d="M2680 1741 c5 -11 15 -23 21 -27 6 -3 3 5 -6 20 -20 30 -30 35 -15 7z"/>
<path d="M2736 1647 c3 -10 9 -15 12 -12 3 3 0 11 -7 18 -10 9 -11 8 -5 -6z"/>
<path d="M2780 1571 c5 -11 15 -23 21 -27 6 -3 3 5 -6 20 -20 30 -30 35 -15 7z"/>
<path d="M2811 1514 c0 -11 3 -14 6 -6 3 7 2 16 -1 19 -3 4 -6 -2 -5 -13z"/>
<path d="M2840 1461 c0 -6 4 -13 10 -16 6 -3 7 1 4 9 -7 18 -14 21 -14 7z"/>
<path d="M2886 1385 c24 -39 24 -40 24 -28 0 6 -9 21 -21 34 l-20 24 17 -30z"/>
<path d="M2947 1275 c3 -11 9 -22 13 -25 3 -3 19 -30 34 -60 16 -30 34 -62 42
-71 8 -9 11 -19 7 -24 -5 -4 -2 -5 5 -1 11 7 11 11 -1 24 -8 10 -29 44 -46 77
-16 33 -37 69 -45 80 l-16 20 7 -20z"/>
<path d="M3067 1054 c3 -7 9 -14 14 -14 5 0 8 -3 7 -7 -3 -9 41 -83 48 -83 7
0 -29 63 -39 71 -5 3 -8 9 -8 13 3 18 0 24 -13 29 -10 4 -13 1 -9 -9z"/>
<path d="M3144 918 c9 -13 21 -34 26 -47 6 -13 13 -21 17 -18 6 6 -45 87 -55
87 -2 0 3 -10 12 -22z"/>
<path d="M3210 805 c0 -8 4 -15 10 -15 5 0 7 7 4 15 -4 8 -8 15 -10 15 -2 0
-4 -7 -4 -15z"/>
<path d="M3230 771 c0 -7 7 -19 15 -27 19 -20 19 -5 0 20 -9 11 -15 14 -15 7z"/>
<path d="M3277 688 c10 -21 22 -38 26 -38 9 0 -4 26 -27 55 -13 16 -13 13 1
-17z"/>
<path d="M3315 616 c10 -14 19 -26 22 -26 7 0 -17 39 -28 46 -6 3 -3 -5 6 -20z"/>
<path d="M3347 549 c7 -7 15 -10 18 -7 3 3 -2 9 -12 12 -14 6 -15 5 -6 -5z"/>
<path d="M3381 485 c0 -5 11 -23 25 -40 22 -26 24 -27 13 -5 -7 14 -12 29 -11
33 1 5 -2 6 -7 3 -5 -4 -12 0 -14 6 -3 7 -6 9 -6 3z"/>
<path d="M3425 400 c3 -5 11 -10 16 -10 6 0 7 5 4 10 -3 6 -11 10 -16 10 -6 0
-7 -4 -4 -10z"/>
<path d="M3455 350 c9 -16 18 -30 21 -30 2 0 -2 14 -11 30 -9 17 -18 30 -21
30 -2 0 2 -13 11 -30z"/>
</g>
</svg>
